<svg xmlns="http://www.w3.org/2000/svg" aria-hidden="true" style="position:absolute;width:0;height:0;overflow:hidden"><defs><symbol id="icon-client-6" viewBox="0 0 32 32"><path fill="#afb1b8" d="M16.08 15.512a.559.559 0 0 1-.114-.374v-.543c0-.166.038-.293.113-.379s.205-.13.389-.129c.173 0 .295.037.368.11a.454.454 0 0 1 .109.325v.128h-.309v-.129a.662.662 0 0 0-.009-.126.12.12 0 0 0-.044-.075.175.175 0 0 0-.112-.029.188.188 0 0 0-.118.031.141.141 0 0 0-.051.083.602.602 0 0 0-.012.134v.659a.334.334 0 0 0 .04.185c.015.02.037.035.062.045s.053.013.08.01a.164.164 0 0 0 .109-.03.137.137 0 0 0 .046-.08.838.838 0 0 0 .01-.132v-.134h.309v.122a.493.493 0 0 1-.107.341c-.071.081-.192.121-.37.121s-.312-.043-.388-.133zm1.286.006c-.078-.084-.117-.208-.117-.37v-.571c0-.161.039-.283.117-.366s.208-.124.391-.124c.182 0 .311.041.389.124s.118.205.118.366v.571c0 .161-.04.285-.119.37s-.208.128-.388.128c-.18 0-.313-.043-.391-.127zm.535-.137a.315.315 0 0 0 .037-.169v-.699a.313.313 0 0 0-.036-.166c-.016-.02-.038-.036-.063-.046s-.054-.013-.081-.01c-.028-.003-.056 0-.082.01s-.048.025-.064.045a.304.304 0 0 0-.037.166v.702a.315.315 0 0 0 .037.169.213.213 0 0 0 .288 0v-.003zm.735-1.278h.333l.25 1.053.256-1.053h.324l.033 1.52h-.239l-.026-1.057-.247 1.057h-.192l-.256-1.06-.024 1.06h-.242l.03-1.52zm1.567 0h.518c.298 0 .448.144.448.432 0 .276-.157.413-.471.413h-.176v.676h-.32l.002-1.52zm.443.65c.032.003.064.001.094-.007s.058-.022.082-.041a.244.244 0 0 0 .046-.172.495.495 0 0 0-.015-.138c-.005-.015-.012-.029-.024-.042s-.025-.023-.04-.031a.33.33 0 0 0-.143-.024h-.124v.454h.124zm.984-.65h.344l.352 1.52h-.298l-.07-.351h-.306l-.072.351h-.302l.352-1.52zm.294.994-.12-.638-.12.638h.239zm.686-.994h.224l.428.867v-.867h.265v1.52h-.213l-.431-.905v.905h-.274l.001-1.52zm1.539.941-.356-.939h.3l.217.603.204-.603h.294l-.352.939v.58h-.307v-.58zm-7.575 1.244v.079h-.261v.618h-.109v-.618h-.262v-.079h.632zm.818.698h-.084a.042.042 0 0 1-.038-.023l-.075-.166h-.362l-.075.166a.044.044 0 0 1-.012.019.04.04 0 0 1-.024.007h-.084l.32-.697h.111l.324.694zm-.53-.259h.302l-.128-.284a.642.642 0 0 1-.024-.066.816.816 0 0 1-.012.037l-.012.029-.127.283zm1.081.19a.6.6 0 0 0 .06 0c.017-.002.034-.004.051-.008.016-.003.031-.008.046-.013l.043-.017v-.157h-.128l-.009-.001-.008-.004-.005-.006a.019.019 0 0 1-.002-.007v-.054h.248v.267a.483.483 0 0 1-.215.071.964.964 0 0 1-.093.004.485.485 0 0 1-.161-.026c-.048-.017-.091-.041-.128-.073s-.064-.069-.082-.11a.345.345 0 0 1-.029-.145.353.353 0 0 1 .029-.146c.018-.041.046-.079.082-.11s.08-.056.128-.072a.522.522 0 0 1 .171-.026.494.494 0 0 1 .229.052c.02.011.038.023.056.036l-.031.043c-.002.004-.006.007-.01.01s-.009.004-.015.004a.036.036 0 0 1-.02-.006.194.194 0 0 1-.031-.017c-.014-.007-.028-.014-.043-.019a.3.3 0 0 0-.059-.015.552.552 0 0 0-.081-.006.39.39 0 0 0-.123.019c-.036.012-.068.031-.094.055s-.047.055-.059.087a.32.32 0 0 0 0 .232.264.264 0 0 0 .157.143.363.363 0 0 0 .127.014zm1.019-.011h.349v.079h-.456v-.697h.109l-.003.618zm.713.08h-.109v-.697h.109v.697zm.406-.694c.007.003.012.008.017.013l.467.526v-.545h.095v.7h-.055c-.008.001-.016-.001-.024-.004s-.012-.008-.017-.013l-.467-.525v.543h-.091v-.697h.057l.018.003zm1.385-.004v.077h-.387v.23h.314v.074h-.314v.238h.387v.077h-.5v-.696h.5zm-11.459-4.306 4.856 1.19v4.171l-4.856-1.19v-4.171zm-.312-.355v4.73l5.478 1.343v-4.729l-5.478-1.344z" style="fill:var(--color1, #afb1b8)"/><path fill="#afb1b8" d="m12.631 19.895-5.478-1.344v-4.729l5.478 1.344v4.73z" style="fill:var(--color1, #afb1b8)"/><path fill="#afb1b8" d="m9.786 11.929 4.792 1.175-2.038 1.76-4.793-1.176 2.039-1.759zm-.091-.302-2.543 2.195 5.478 1.344 2.542-2.195-5.478-1.344zm3.245 8.002 2.234-1.929-2.234-.548v2.477z" style="fill:var(--color1, #afb1b8)"/></symbol><symbol id="icon-client-5" viewBox="0 0 32 32"><path fill="#afb1b8" d="M11.06 18.774a.27.27 0 0 1 .069.184c.002.044-.006.087-.025.127s-.047.076-.082.105a.492.492 0 0 1-.311.085h-.547V18.11h.535a.495.495 0 0 1 .297.077.26.26 0 0 1 .104.218.255.255 0 0 1-.062.178.301.301 0 0 1-.163.091.316.316 0 0 1 .185.1zm-.641-.176h.229a.227.227 0 0 0 .146-.039.132.132 0 0 0 .049-.114.137.137 0 0 0-.048-.114.237.237 0 0 0-.15-.039h-.225v.306zm.397.447c.018-.015.033-.033.042-.053s.013-.043.012-.065a.14.14 0 0 0-.055-.12.256.256 0 0 0-.155-.042h-.24v.321h.243a.258.258 0 0 0 .154-.04zm1.339.23-.298-.455h-.112v.455h-.256V18.11h.485a.511.511 0 0 1 .338.099.351.351 0 0 1 .036.482.4.4 0 0 1-.231.118l.317.466h-.279zm-.41-.615h.21c.146 0 .218-.059.218-.177a.167.167 0 0 0-.054-.131.24.24 0 0 0-.165-.047h-.212l.002.355zm1.81.38h-.511l-.09.235h-.269l.469-1.152h.29l.467 1.152h-.269l-.088-.235zm-.069-.176-.187-.492-.187.492h.373zm1.822.411h-.254l-.57-.793v.793h-.254V18.11h.254l.57.797v-.797h.254v1.165zm1.451-.279a.535.535 0 0 1-.23.206.812.812 0 0 1-.358.073h-.453V18.11h.453a.828.828 0 0 1 .358.072.523.523 0 0 1 .23.203.627.627 0 0 1 0 .612zm-.291-.028c.073-.077.113-.176.113-.278s-.04-.201-.113-.278a.467.467 0 0 0-.318-.099h-.177v.754h.177a.465.465 0 0 0 .318-.099zm-2.754-7.341s3.283 1.135 3.213 2.777v2.777s-3.28-1.135-3.212-2.777l-.001-2.777zm6.137 4.903a4.755 4.755 0 0 1 2.086-.704v-.869a4.216 4.216 0 0 0-2.086 1.573z" style="fill:var(--color1, #afb1b8)"/><path fill="#afb1b8" d="M19.479 16.792c.507-.935 1.387-1.657 2.458-2.017V12.27s-4.675 1.616-4.576 3.955v3.954s.208-.072.536-.208c0-.126 0-.254.015-.382.097-1.086.66-2.091 1.567-2.797z" style="fill:var(--color1, #afb1b8)"/><path fill="#afb1b8" d="M19.034 18.261c.024-.274.079-.546.164-.81a3.662 3.662 0 0 0-.978 2.161c-.007.075-.011.15-.012.228.265-.117.575-.262.899-.434a3.768 3.768 0 0 1-.073-1.145zm.186.015c-.031.346-.012.695.058 1.037 1.277-.7 2.712-1.781 2.657-3.088v-.114a4.363 4.363 0 0 0-2.43 1.04c-.155.36-.251.739-.285 1.125z" style="fill:var(--color1, #afb1b8)"/></symbol><symbol id="icon-client-4" viewBox="0 0 32 32"><path fill="#afb1b8" d="M15.457 11.47c.043 0 .09.004.136.008l.014.001c.225.016.447.049.667.101v-.539a4.008 4.008 0 0 0-.688-.11 4.808 4.808 0 0 0-.278-.013h-.08c-.466.002-.93.062-1.381.178a5.592 5.592 0 0 0-1.465.596v5.345a6.118 6.118 0 0 1 2.569-.724h.016c.066-.003.132-.005.2-.006v-.548a6.53 6.53 0 0 0-2.054.359l-.19.065v-4.168l.081-.039a5.314 5.314 0 0 1 1.979-.505H15c.076-.004.152-.006.227-.006h.086l.119.004h.026zm.948.551c.119.009.243.013.369.013a5.93 5.93 0 0 0 1.452-.186 5.952 5.952 0 0 0 1.396-.545v5.25a5.599 5.599 0 0 1-1.466.596 5.642 5.642 0 0 1-1.381.178 4.255 4.255 0 0 1-1.048-.123V11.92a4.652 4.652 0 0 0 .678.101zm2.672.041-.191.064a6.45 6.45 0 0 1-2.111.361c-.124 0-.239-.003-.349-.011l-.152-.01v4.287l.13.011c.121.011.246.016.371.016.42-.002.839-.056 1.246-.161.335-.084.661-.201.974-.35l.081-.039v-4.169zm-6.326 6.801a.285.285 0 0 0-.212-.085.298.298 0 0 0-.217.086.262.262 0 0 0-.061.096.32.32 0 0 0-.022.118v.714c-.002.05.008.1.028.146a.293.293 0 0 0 .071.096.263.263 0 0 0 .098.051.39.39 0 0 0 .107.015.3.3 0 0 0 .295-.301v-.08h-.187v.064a.157.157 0 0 1-.011.064.109.109 0 0 1-.027.04.147.147 0 0 1-.039.021.178.178 0 0 1-.039.007c-.017.002-.034-.001-.049-.007s-.029-.017-.039-.031a.17.17 0 0 1-.025-.096v-.666a.232.232 0 0 1 .023-.107c.01-.015.023-.027.04-.035s.034-.011.052-.008c.016-.001.032.003.047.01s.027.017.037.03a.15.15 0 0 1 .031.096v.062h.185v-.073a.334.334 0 0 0-.085-.226zm1.109-.008a.332.332 0 0 0-.323-.058.284.284 0 0 0-.171.158.33.33 0 0 0-.027.138v.685a.336.336 0 0 0 .027.14c.017.037.042.07.072.096a.296.296 0 0 0 .099.06.33.33 0 0 0 .222 0c.037-.014.071-.034.101-.06s.054-.059.07-.096a.336.336 0 0 0 .027-.14v-.685a.324.324 0 0 0-.097-.238zm-.088.924c.002.018-.001.037-.007.054s-.017.033-.03.045a.136.136 0 0 1-.176 0c-.013-.013-.023-.028-.03-.045s-.009-.036-.007-.054v-.685c-.002-.018.001-.037.007-.054s.017-.033.03-.045a.136.136 0 0 1 .176 0c.013.013.023.028.03.045s.009.036.007.054v.685zm1.544.306v-1.297h-.18l-.236.686h-.003l-.238-.686h-.178v1.297h.185v-.789h.003l.181.558h.092l.183-.558h.003v.789h.185zm1.053-1.206a.268.268 0 0 0-.105-.071.407.407 0 0 0-.134-.02h-.275v1.297h.185v-.506h.095a.344.344 0 0 0 .167-.035.267.267 0 0 0 .101-.099.31.31 0 0 0 .042-.113.908.908 0 0 0 .01-.147.718.718 0 0 0-.018-.185.273.273 0 0 0-.068-.119zm-.096.395a.17.17 0 0 1-.017.067.1.1 0 0 1-.048.045.185.185 0 0 1-.087.016h-.084v-.441h.095a.181.181 0 0 1 .083.016.105.105 0 0 1 .043.048.18.18 0 0 1 .016.072v.086c0 .03.002.061 0 .089h-.002zm.971-.486h-.151l-.286 1.297h.185l.054-.279h.252l.054.279h.185l-.293-1.297zm-.171.841.091-.47h.003l.09.47h-.185zm1.365-.06h-.003l-.279-.781h-.178v1.297h.185v-.78h.004l.282.78h.174v-1.297h-.185v.781zm1.129-.781-.149.516h-.004l-.149-.516h-.196l.254.749v.548h.185v-.548l.254-.749h-.196zm-7.332 1.663h.089v.25h.06v-.25h.089V20.4h-.238v.051zm.749-.052-.117.301h.064l.025-.068h.12l.026.068h.066l-.12-.301h-.064zm-.01.182.041-.112.041.112h-.082zm.75.009h.07v.039a.114.114 0 0 1-.071.025.076.076 0 0 1-.063-.029.122.122 0 0 1-.022-.078c0-.067.029-.101.087-.101.015-.002.03.003.043.011s.021.022.025.037l.06-.011c-.013-.059-.055-.089-.128-.089a.15.15 0 0 0-.105.039.149.149 0 0 0-.043.116.161.161 0 0 0 .039.113c.015.015.033.027.052.035s.041.011.062.009a.184.184 0 0 0 .128-.048v-.119h-.13v.051zm.755-.191h-.061v.301h.211v-.051h-.15v-.25zm.64 0h-.061v.301h.061v-.301zm.624.202-.123-.201h-.059v.301h.057v-.197l.121.197h.06V20.4h-.056v.201zm.565-.033h.15v-.051h-.15v-.066h.161V20.4h-.222v.301h.229v-.051h-.168v-.081zm1.37-.05h-.119v-.119h-.06v.301h.06v-.132h.119v.132h.06v-.301h-.06v.119zm.568.05h.15v-.051h-.15v-.066h.162V20.4h-.222v.301h.228v-.051h-.168v-.081zm.77 0c.053-.008.079-.036.079-.084.002-.013 0-.026-.006-.038s-.013-.022-.024-.029a.168.168 0 0 0-.088-.018h-.128v.301h.061v-.126h.012a.083.083 0 0 1 .038.007.056.056 0 0 1 .021.022l.066.096h.072l-.037-.059a.201.201 0 0 0-.067-.072zm-.061-.042h-.045v-.076h.048a.155.155 0 0 1 .061.007c.004.004.008.009.01.014s.003.011.003.017c0 .006-.002.012-.005.017s-.007.01-.011.013a.162.162 0 0 1-.062.007zm.642.042h.15v-.051h-.15v-.066h.162V20.4h-.223v.301h.229v-.051h-.168v-.081z" style="fill:var(--color1, #afb1b8)"/></symbol><symbol id="icon-client-3" viewBox="0 0 32 32"><path fill="#afb1b8" d="m12.876 19.596.009.002a.018.018 0 0 1 .007.005l.041.039a.347.347 0 0 1-.115.075.456.456 0 0 1-.164.027.444.444 0 0 1-.154-.025.318.318 0 0 1-.191-.179.355.355 0 0 1-.026-.14.314.314 0 0 1 .108-.249.367.367 0 0 1 .123-.071.473.473 0 0 1 .159-.025.385.385 0 0 1 .257.086l-.034.042c-.002.003-.005.006-.009.008s-.009.004-.014.003a.042.042 0 0 1-.015-.004l-.018-.011-.026-.014a.488.488 0 0 0-.034-.014c-.015-.005-.031-.008-.047-.011a.313.313 0 0 0-.061-.004.337.337 0 0 0-.114.019.24.24 0 0 0-.147.137.281.281 0 0 0-.021.111.29.29 0 0 0 .021.112.246.246 0 0 0 .142.135.306.306 0 0 0 .106.018.444.444 0 0 0 .063-.004.258.258 0 0 0 .136-.058.032.032 0 0 1 .02-.007zm1.186-.198a.339.339 0 0 1-.105.247.358.358 0 0 1-.121.071.504.504 0 0 1-.312 0c-.045-.016-.086-.04-.121-.071s-.061-.068-.078-.109a.362.362 0 0 1 0-.278.322.322 0 0 1 .199-.177.49.49 0 0 1 .312 0 .334.334 0 0 1 .199.178.357.357 0 0 1 .028.14zm-.108 0a.28.28 0 0 0-.02-.111.216.216 0 0 0-.055-.083.248.248 0 0 0-.087-.053.367.367 0 0 0-.227 0 .248.248 0 0 0-.087.053.216.216 0 0 0-.055.083.329.329 0 0 0 0 .223.227.227 0 0 0 .142.135.367.367 0 0 0 .227 0 .246.246 0 0 0 .087-.052.236.236 0 0 0 .055-.083.306.306 0 0 0 .02-.111zm.917.117.011.025.012-.025.013-.025.262-.414c.005-.007.01-.012.015-.013a.053.053 0 0 1 .022-.002h.078v.674h-.092v-.539l-.264.42c-.003.006-.009.012-.015.015s-.015.006-.023.006h-.015c-.008 0-.016-.002-.023-.006s-.012-.009-.015-.015l-.271-.423v.54h-.089v-.672h.078c.007 0 .015 0 .022.002s.011.007.014.013l.268.415c.005.008.01.016.013.024zm.987-.033v.252h-.103v-.673h.229a.462.462 0 0 1 .128.015.24.24 0 0 1 .09.042.17.17 0 0 1 .051.066.197.197 0 0 1 .017.086.2.2 0 0 1-.019.086.177.177 0 0 1-.055.067.277.277 0 0 1-.091.045.469.469 0 0 1-.124.016l-.124-.002zm0-.072h.124a.308.308 0 0 0 .08-.01.176.176 0 0 0 .058-.029.128.128 0 0 0 .047-.102.117.117 0 0 0-.046-.101.213.213 0 0 0-.138-.036h-.124v.277zm1.379.325h-.081c-.008 0-.016-.002-.023-.006s-.01-.01-.013-.016l-.07-.163h-.351l-.072.163c-.003.006-.007.011-.013.015s-.015.007-.023.007h-.081l.308-.674h.107l.312.674zm-.508-.25h.289l-.122-.274a.533.533 0 0 1-.023-.063l-.012.035-.011.029-.121.274zm.952-.421a.044.044 0 0 1 .015.012l.449.508v-.523h.092v.674h-.051c-.007 0-.015-.001-.021-.004s-.012-.007-.016-.012l-.449-.507v.523h-.092v-.674h.054c.006 0 .013.001.018.003zm1.313.403v.268h-.103v-.268l-.284-.406h.092c.008 0 .016.002.022.006s.01.009.014.015l.177.262.019.031c.006.01.009.019.013.029l.013-.029a.307.307 0 0 1 .017-.031l.175-.264.013-.014a.038.038 0 0 1 .022-.007h.093l-.284.408zm-4.174-1.536c.045.005.09.009.136.012.693-.269 1.278-.71 1.684-1.267s.614-1.205.598-1.864l-.763-.663c.155.702.083 1.427-.21 2.095s-.793 1.252-1.445 1.687z" style="fill:var(--color1, #afb1b8)"/><path fill="#afb1b8" d="m14.548 17.9.021.004c.697-.433 1.229-1.038 1.526-1.737s.346-1.459.141-2.182l-1.087-.944c.44.776.617 1.645.51 2.505s-.492 1.677-1.111 2.354zm3.686-2.309c-.185.724-.633 1.377-1.279 1.862a4.137 4.137 0 0 1-.608.379c.526-.134 1.009-.372 1.413-.694s.716-.721.915-1.165l-.441-.383z" style="fill:var(--color1, #afb1b8)"/><path fill="#afb1b8" d="m18.061 15.484-.628-.545c-.012.622-.215 1.229-.589 1.76s-.904.964-1.536 1.256h.003c.141 0 .282-.007.421-.022.591-.209 1.112-.543 1.519-.97s.685-.935.81-1.479zm-3.423-2.842-.749-.651c-.669.225-1.245.62-1.652 1.134s-.625 1.122-.627 1.746c.002.689.269 1.358.758 1.9s1.172.927 1.942 1.094c.687-.727 1.089-1.625 1.148-2.564s-.228-1.87-.82-2.658zm5.153 2.742c-.003-.817-.378-1.601-1.043-2.179s-1.567-.904-2.508-.906c-.435 0-.866.069-1.271.206l4.585 3.983c.157-.352.238-.726.237-1.104z" style="fill:var(--color1, #afb1b8)"/></symbol><symbol id="icon-client-2" viewBox="0 0 32 32"><path fill="#afb1b8" d="M10.569 14.325h-.001c-.451 0-.817.325-.817.726 0 .401.366.726.817.726h.001c.451 0 .817-.325.817-.726 0-.401-.366-.726-.817-.726zm6.032-.232c-.001-.557-.251-1.091-.694-1.485s-1.044-.616-1.671-.617c-.627.001-1.228.223-1.672.617s-.693.928-.695 1.486v3.073s4.731-.468 4.732-3.072zm-8.507 4.081c.001.388.175.759.483 1.033s.726.429 1.163.43c.436-.001.854-.156 1.162-.43s.482-.645.484-1.033v-2.138s-3.292.326-3.292 2.137zm1.646.383c-.085 0-.169-.022-.239-.065s-.126-.102-.159-.172c-.033-.07-.041-.147-.025-.221s.058-.143.118-.196a.479.479 0 0 1 .47-.083.42.42 0 0 1 .193.141.356.356 0 0 1 .041.36.375.375 0 0 1-.093.125c-.04.036-.088.064-.14.083s-.109.029-.165.029v-.001zm3.327-.211h-.318v.328h-.165v-.803h.523v.134h-.357v.207h.318v.133zm.795-.055a.486.486 0 0 1-.042.208.318.318 0 0 1-.299.187.317.317 0 0 1-.299-.185.479.479 0 0 1-.044-.205v-.04c0-.079.014-.149.042-.208a.32.32 0 0 1 .3-.187.324.324 0 0 1 .299.187c.029.06.043.129.043.208v.036zm-.168-.036c0-.084-.015-.148-.045-.192s-.073-.066-.129-.066c-.056 0-.098.022-.129.065s-.045.106-.046.19v.039c0 .082.015.146.045.191s.074.068.13.068c.056 0 .098-.022.128-.065s.045-.107.045-.191v-.039zm.705.209c0-.031-.011-.055-.033-.072s-.062-.035-.119-.053a.878.878 0 0 1-.136-.055c-.091-.049-.137-.116-.137-.199 0-.043.012-.082.036-.116s.06-.061.105-.08a.399.399 0 0 1 .307.002c.045.021.08.05.104.088s.037.081.037.129h-.165c0-.037-.012-.065-.035-.085s-.056-.031-.098-.031c-.04 0-.072.009-.094.026s-.034.039-.034.067c0 .026.013.048.039.066s.065.034.116.05c.094.028.163.063.206.105s.065.094.065.157c0 .069-.026.124-.079.164s-.123.059-.212.059c-.062 0-.118-.011-.169-.034s-.09-.054-.116-.093a.243.243 0 0 1-.04-.137h.166c0 .089.053.133.159.133.039 0 .07-.008.092-.024s.033-.039.033-.067zm.883-.459h-.246v.669h-.165v-.669h-.243v-.134h.654v.134zm.578.321h-.318v.215h.373v.133h-.538v-.803h.537v.134h-.372v.191h.318v.13zm.449.054h-.132v.294h-.165v-.803h.298c.095 0 .168.021.219.063s.077.102.077.179c0 .055-.012.101-.036.137s-.059.065-.108.087l.174.328v.008h-.178l-.151-.294zm-.132-.134h.133c.042 0 .074-.011.096-.031s.034-.051.034-.088c0-.038-.011-.068-.033-.089s-.054-.033-.099-.033h-.133v.241zm1.003.145v.283h-.165v-.803h.313c.06 0 .113.011.159.033s.081.053.106.094c.025.04.037.087.037.138 0 .079-.027.141-.081.186s-.128.068-.223.068h-.145zm0-.134h.148c.044 0 .077-.01.1-.031s.035-.05.035-.088c0-.039-.012-.071-.035-.095s-.055-.037-.096-.038h-.152v.252zm1.046.069h-.318v.215h.373v.133h-.538v-.803h.537v.134h-.372v.191h.318v.13zm.768-.321h-.246v.669h-.165v-.669h-.243v-.134h.654v.134zm.578.321h-.318v.215h.373v.133h-.538v-.803h.537v.134h-.372v.191h.318v.13zm.449.054h-.132v.294h-.165v-.803h.298c.095 0 .168.021.219.063s.077.102.077.179c0 .055-.012.101-.036.137s-.059.065-.108.087l.174.328v.008h-.177l-.151-.294zm-.131-.134h.133c.042 0 .074-.011.096-.031s.034-.051.034-.088c0-.038-.011-.068-.033-.089s-.054-.033-.099-.033h-.133v.241zm.972.218c0-.031-.011-.055-.033-.072s-.062-.035-.119-.053a.878.878 0 0 1-.136-.055c-.091-.049-.137-.116-.137-.199 0-.043.012-.082.036-.116s.06-.061.105-.08a.402.402 0 0 1 .307.002.238.238 0 0 1 .142.217h-.165c0-.037-.012-.065-.035-.085s-.056-.031-.098-.031c-.04 0-.072.009-.094.026s-.034.039-.034.067c0 .026.013.048.039.066s.065.034.116.05c.094.028.163.063.206.105s.065.094.065.157c0 .069-.026.124-.079.164s-.123.059-.212.059c-.062 0-.118-.011-.169-.034s-.089-.054-.116-.093a.243.243 0 0 1-.04-.137h.166c0 .089.053.133.159.133.039 0 .07-.008.092-.024s.033-.039.033-.067z" style="fill:var(--color1, #afb1b8)"/></symbol><symbol id="icon-client-1" viewBox="0 0 32 32"><path fill="#afb1b8" d="m13.176 11.671 1.319 1.249-2.449-.001v6.059h6.4v-2.317l1.318 1.247v-6.237h-6.588zm5.213 4.843-3.74-3.541h3.74v3.541zm-1.161 1.576H13.06v-4.075h.295v3.799h3.873v.276zm-3.184 1.693h.129l-.224.423v.246h-.117v-.246l-.225-.423h.129l.154.317.154-.317zm.194.669.054-.156h.259l.055.156h.121l-.253-.669h-.104l-.253.669h.121zm.183-.527.097.278h-.194l.097-.278zm.613.262a.384.384 0 0 1 .1-.092c-.026-.033-.044-.061-.055-.084s-.015-.045-.015-.067c0-.052.016-.094.048-.124s.075-.046.129-.046c.049 0 .089.014.12.043s.047.064.047.106c0 .028-.007.054-.021.077s-.037.047-.069.07l-.046.033.129.153a.265.265 0 0 0 .028-.123h.097c0 .082-.019.15-.058.203l.098.116h-.13l-.038-.045c-.048.036-.105.054-.171.054s-.119-.017-.159-.052a.173.173 0 0 1-.059-.137c0-.031.008-.059.025-.085zm.302.148-.146-.172-.014.01c-.037.028-.055.06-.055.096 0 .031.01.056.03.075s.047.029.08.029a.172.172 0 0 0 .106-.038zm-.12-.297.051-.035.014-.012a.082.082 0 0 0 .028-.065c0-.017-.007-.032-.02-.045s-.03-.019-.05-.019c-.022 0-.039.007-.052.022s-.019.033-.019.056c0 .026.016.058.047.097zm1.089.364a.269.269 0 0 1-.183.06c-.053 0-.1-.013-.141-.038s-.072-.061-.094-.108-.034-.101-.034-.162v-.063c0-.063.011-.119.034-.167a.255.255 0 0 1 .241-.15c.074 0 .133.02.178.06s.071.097.079.17h-.116c-.006-.048-.02-.083-.042-.104s-.055-.032-.099-.032c-.051 0-.089.019-.117.056s-.041.091-.041.162v.059c0 .072.013.127.039.165s.064.057.114.057c.046 0 .08-.01.103-.031s.038-.055.044-.102h.116a.243.243 0 0 1-.079.167zm.684-.094c-.023.049-.055.087-.097.114s-.09.04-.145.04a.262.262 0 0 1-.243-.154.397.397 0 0 1-.035-.17V20.1c0-.065.011-.123.034-.173a.256.256 0 0 1 .243-.154.259.259 0 0 1 .243.153.398.398 0 0 1 .035.171v.037a.408.408 0 0 1-.034.173zm-.125-.378a.136.136 0 0 0-.119-.059c-.05 0-.09.02-.118.059s-.043.095-.043.167v.039c0 .074.014.13.043.171s.069.06.119.06c.051 0 .091-.02.119-.059s.042-.096.042-.172v-.035a.296.296 0 0 0-.042-.171z" style="fill:var(--color1, #afb1b8)"/></symbol><symbol id="icon-masters" viewBox="0 0 32 32"><path fill="#d3cce3" d="M2.769 4.008c-.138 0-.252-.112-.252-.25s.109-.25.247-.25h.005a.25.25 0 0 1 0 .5zm1 0c-.138 0-.252-.112-.252-.25s.109-.25.247-.25h.005a.25.25 0 0 1 0 .5zm1 0c-.138 0-.252-.112-.252-.25s.109-.25.247-.25h.005a.25.25 0 0 1 0 .5zm21.993 6.498c-.138 0-.252-.112-.252-.25s.109-.25.247-.25h.005a.25.25 0 0 1 0 .5zm4.983 10.988H.255a.25.25 0 0 1 0-.5h31.49a.25.25 0 0 1 0 .5zM16 23.993c-.551 0-1-.449-1-1s.449-1 1-1 1 .449 1 1-.449 1-1 1zm0-1.5a.5.5 0 1 0 0 1 .5.5 0 0 0 0-1zm-4.246 7.999a.25.25 0 0 1-.244-.305v.002l1-4.499a.25.25 0 1 1 .488.11v-.002l-1 4.499a.25.25 0 0 1-.244.196zm8.492 0a.25.25 0 0 1-.244-.194v-.002l-1-4.499a.25.25 0 0 1 .188-.298h.002a.25.25 0 0 1 .298.19l1 4.499a.25.25 0 0 1-.244.304z" style="fill:var(--color2, #d3cce3)"/><path fill="#d3cce3" d="M20.999 30.492h-9.997a.25.25 0 0 1 0-.5h9.997a.25.25 0 0 1 0 .5zm9.247-10.489H1.755a.25.25 0 0 1-.25-.25V3.258a.25.25 0 0 1 .25-.25h28.491a.25.25 0 0 1 .25.25v16.495a.25.25 0 0 1-.25.25zm-28.242-.5h27.991V3.508H2.004v15.995z" style="fill:var(--color2, #d3cce3)"/><path fill="#d3cce3" d="M30.246 25.001H1.755a1.75 1.75 0 0 1-1.749-1.749V3.258a1.75 1.75 0 0 1 1.749-1.749h28.491c.965 0 1.75.785 1.75 1.749v19.994c0 .965-.785 1.75-1.75 1.75zM1.754 2.008c-.689 0-1.25.561-1.25 1.25v19.994c0 .689.56 1.25 1.25 1.25h28.491c.689 0 1.25-.56 1.25-1.25V3.258c0-.689-.56-1.25-1.25-1.25H1.754z" style="fill:var(--color2, #d3cce3)"/><path fill="#d3cce3" d="M30.246 25.993H1.755a1.73 1.73 0 0 1-1.749-1.749v-1a.25.25 0 0 1 .5 0v1c0 .701.549 1.25 1.25 1.25h28.491c.701 0 1.25-.549 1.25-1.25v-.992a.25.25 0 0 1 .5 0v.992a1.73 1.73 0 0 1-1.75 1.749zm0-21.486H1.755a.25.25 0 0 1 0-.5h28.491a.25.25 0 0 1 0 .5zM3.254 19.003a.25.25 0 0 1-.25-.25V5.257a.25.25 0 0 1 .5 0v13.496a.25.25 0 0 1-.25.25z" style="fill:var(--color2, #d3cce3)"/><path fill="#d3cce3" d="M25.747 20.003a.25.25 0 0 1-.25-.25V4.258a.25.25 0 0 1 .5 0v15.495a.25.25 0 0 1-.25.25z" style="fill:var(--color2, #d3cce3)"/><path fill="#d3cce3" d="M30.246 8.506h-4.499a.25.25 0 0 1 0-.5h4.499a.25.25 0 0 1 0 .5zM3.254 7.007h-1.5a.25.25 0 0 1 0-.5h1.5a.25.25 0 0 1 0 .5zm0 1.499h-1.5a.25.25 0 0 1 0-.5h1.5a.25.25 0 0 1 0 .5zm0 1.5h-1.5a.25.25 0 0 1 0-.5h1.5a.25.25 0 0 1 0 .5zm0 1.499h-1.5a.25.25 0 0 1 0-.5h1.5a.25.25 0 0 1 0 .5zm0 1.5h-1.5a.25.25 0 0 1 0-.5h1.5a.25.25 0 0 1 0 .5zm0 1.499h-1.5a.25.25 0 0 1 0-.5h1.5a.25.25 0 0 1 0 .5zm0 1.5h-1.5a.25.25 0 0 1 0-.5h1.5a.25.25 0 0 1 0 .5zm0 1.499h-1.5a.25.25 0 0 1 0-.5h1.5a.25.25 0 0 1 0 .5zm0 1.5h-1.5a.25.25 0 0 1 0-.5h1.5a.25.25 0 0 1 0 .5zm0-13.496h-1.5a.25.25 0 0 1 0-.5h1.5a.25.25 0 0 1 0 .5zm25.992.5h-2.499a.25.25 0 0 1 0-.5h2.499a.25.25 0 0 1 0 .5zm0 1h-2.499a.25.25 0 0 1 0-.5h2.499a.25.25 0 0 1 0 .5zm0 3.499h-1.5a.25.25 0 0 1 0-.5h1.5a.25.25 0 0 1 0 .5zm-2.484 1.499c-.138 0-.252-.112-.252-.25s.109-.25.247-.25h.005a.25.25 0 0 1 0 .5zm2.484 0h-1.5a.25.25 0 0 1 0-.5h1.5a.25.25 0 0 1 0 .5zm-2.484 1.5c-.138 0-.252-.112-.252-.25s.109-.25.247-.25h.005a.25.25 0 0 1 0 .5zm2.484 0h-1.5a.25.25 0 0 1 0-.5h1.5a.25.25 0 0 1 0 .5zm-2.484 1.499c-.138 0-.252-.112-.252-.25s.109-.25.247-.25h.005a.25.25 0 0 1 0 .5zm2.484 0h-1.5a.25.25 0 0 1 0-.5h1.5a.25.25 0 0 1 0 .5zm-2.484 1.5c-.138 0-.252-.112-.252-.25s.109-.25.247-.25h.005a.25.25 0 0 1 0 .5zm2.484 0h-1.5a.25.25 0 0 1 0-.5h1.5a.25.25 0 0 1 0 .5zm-2.484 1.499c-.138 0-.252-.112-.252-.25s.109-.25.247-.25h.005a.25.25 0 0 1 0 .5zm2.484 0h-1.5a.25.25 0 0 1 0-.5h1.5a.25.25 0 0 1 0 .5zm-11.996 2H5.254a.25.25 0 0 1-.25-.25v-.51c0-.954.507-1.331 1.383-1.659.172-.064.405-.127.664-.198.777-.21 1.952-.528 1.952-1.133a.25.25 0 0 1 .5 0c0 .988-1.341 1.35-2.321 1.615-.242.066-.46.124-.62.184-.831.311-1.058.567-1.058 1.19v.26h11.497v-.26c0-.623-.228-.879-1.058-1.19a7.46 7.46 0 0 0-.62-.184c-.979-.265-2.32-.628-2.32-1.615a.25.25 0 0 1 .5 0c0 .604 1.174.923 1.951 1.132.26.071.493.134.664.198.876.328 1.383.705 1.383 1.659v.51a.25.25 0 0 1-.25.25z" style="fill:var(--color2, #d3cce3)"/><path fill="#d3cce3" d="M9.252 16.504a.25.25 0 0 1-.25-.25v-1.181a.25.25 0 0 1 .5 0v1.181a.25.25 0 0 1-.25.25zm3.999 0a.25.25 0 0 1-.25-.25v-1.21a.25.25 0 0 1 .5 0v1.21a.25.25 0 0 1-.25.25zm-6.498 1.474a.25.25 0 0 1-.25-.25v-6.973a.25.25 0 0 1 .5 0v6.973a.25.25 0 0 1-.25.25zm8.996 0a.25.25 0 0 1-.25-.25l.002-6.973a.25.25 0 0 1 .5 0l-.002 6.973a.25.25 0 0 1-.25.25z" style="fill:var(--color2, #d3cce3)"/><path fill="#d3cce3" d="M15.751 11.005a.25.25 0 0 1-.25-.25c0-.997-.307-4.249-4.25-4.249-3.485 0-4.249 3.067-4.249 4.249a.25.25 0 0 1-.5 0c0-1.321.853-4.749 4.749-4.749 3.502 0 4.75 2.453 4.75 4.749a.25.25 0 0 1-.25.25zm-4.5 5.499c-1.053 0-3.398-1.823-3.714-4.216a.25.25 0 0 1 .214-.28h.001a.252.252 0 0 1 .281.215c.283 2.145 2.429 3.782 3.218 3.782.89 0 3.249-1.958 3.249-4.311a.25.25 0 0 1 .5 0c0 2.535-2.546 4.811-3.749 4.811z" style="fill:var(--color2, #d3cce3)"/><path fill="#d3cce3" d="M6.752 12.005a.25.25 0 0 1-.246-.206v-.002a.25.25 0 0 1 .203-.288h.002c.053-.009 5.319-.944 7.915-3.917a.251.251 0 0 1 .439.164.248.248 0 0 1-.062.165c-2.714 3.108-7.984 4.042-8.206 4.08a.286.286 0 0 1-.043.004z" style="fill:var(--color2, #d3cce3)"/><path fill="#d3cce3" d="M15.75 11.505a.26.26 0 0 1-.04-.003h.001c-1.95-.309-3.11-1.809-3.158-1.873a.25.25 0 0 1 .397-.303v.001c.011.014 1.091 1.405 2.838 1.682a.251.251 0 0 1 .208.287v-.001a.25.25 0 0 1-.247.211zm-7.997 8.498a.25.25 0 0 1-.25-.25v-2.306a.25.25 0 0 1 .5 0v2.306a.25.25 0 0 1-.25.25zm6.997 0a.25.25 0 0 1-.25-.25v-2.306a.25.25 0 0 1 .5 0v2.306a.25.25 0 0 1-.25.25zm8.998-3.999H18.25a.25.25 0 0 1-.25-.25V7.757a.25.25 0 0 1 .25-.25h5.498a.25.25 0 0 1 .25.25v7.997a.25.25 0 0 1-.25.25zm-5.249-.5h4.998V8.006h-4.998v7.498z" style="fill:var(--color2, #d3cce3)"/><path fill="#d3cce3" d="M20.249 10.506a.75.75 0 1 1 .002-1.502.75.75 0 0 1-.002 1.502zm0-1a.25.25 0 1 0 0 .5.25.25 0 0 0 0-.5z" style="fill:var(--color2, #d3cce3)"/><path fill="#d3cce3" d="M22.748 10.006h-1.999a.25.25 0 0 1 0-.5h1.999a.25.25 0 0 1 0 .5zm-2.999 0h-.5a.25.25 0 0 1 0-.5h.5a.25.25 0 0 1 0 .5zm.5 4.498a.75.75 0 1 1 .002-1.502.75.75 0 0 1-.002 1.502zm0-.999a.25.25 0 0 0 0 .5.25.25 0 0 0 0-.5z" style="fill:var(--color2, #d3cce3)"/><path fill="#d3cce3" d="M22.748 14.005h-1.999a.25.25 0 0 1 0-.5h1.999a.25.25 0 0 1 0 .5zm-2.999 0h-.5a.25.25 0 0 1 0-.5h.5a.25.25 0 0 1 0 .5zm1.999-1.5a.75.75 0 1 1 .002-1.502.75.75 0 0 1-.002 1.502zm0-1a.25.25 0 1 0 0 .5.25.25 0 0 0 0-.5z" style="fill:var(--color2, #d3cce3)"/><path fill="#d3cce3" d="M21.248 12.005h-1.999a.25.25 0 0 1 0-.5h1.999a.25.25 0 0 1 0 .5zm1.5 0h-.5a.25.25 0 0 1 0-.5h.5a.25.25 0 0 1 0 .5z" style="fill:var(--color2, #d3cce3)"/></symbol><symbol id="icon-online-community" viewBox="0 0 32 32"><path fill="#d3cce3" d="M24.001 2.752H7.999C3.588 2.752 0 6.34 0 10.751v10.498c0 4.411 3.588 7.999 7.999 7.999H32V10.751c0-4.411-3.588-7.999-7.999-7.999zm7.019 25.517H7.999a7.028 7.028 0 0 1-7.02-7.02V10.751a7.028 7.028 0 0 1 7.02-7.02h16.002a7.028 7.028 0 0 1 7.02 7.02v17.518z" style="fill:var(--color2, #d3cce3)"/><path fill="#d3cce3" d="M4.003 7.255v17.491h24.495V7.255H4.003zm23.515 16.511H4.982V8.235h22.536v15.531z" style="fill:var(--color2, #d3cce3)"/><path fill="#d3cce3" d="M5.504 8.756v14.489h21.493V8.756H5.504zm.979.979h19.534v6.896l-2.505-2.536-3.012 2.991-1.839-1.769-1.284 1.306A4.014 4.014 0 0 0 14 14.76a3.997 3.997 0 0 0-3.864 4.996H6.484V9.736zm10.181 7.612-2.37 2.409h-3.136A3.015 3.015 0 0 1 14 15.74a3.03 3.03 0 0 1 2.665 1.607zm9.353 2.409h-8.515v.98h8.515v1.529H6.483v-1.529h8.221l3.975-4.04 1.831 1.761 2.995-2.973 2.512 2.543v1.73z" style="fill:var(--color2, #d3cce3)"/><path fill="#d3cce3" d="M7.509 10.742v2.025h.98v-1.045h6.989v-.98zm9.014 0h1.502v.98h-1.502v-.98z" style="fill:var(--color2, #d3cce3)"/></symbol><symbol id="icon-photost" viewBox="0 0 32 32"><path fill="#d3cce3" d="M16.523 10.742h1.502v.98h-1.502v-.98z" style="fill:var(--color2, #d3cce3)"/></symbol><symbol id="icon-send" viewBox="0 0 32 32"><path fill="#fff" d="M15.515 28.121s-3.033-5.841-3.879-7.758l15.588-14.76L15.515 28.12zM3.879 15.515 26.182 4.848 10.667 19.393c-.004-.004-6.788-3.879-6.788-3.879zM30.061.97C28.94 1.516 0 15.515 0 15.515s9.747 5.875 9.697 5.818C9.68 21.315 15.515 32 15.515 32S30.788 2.424 31.03 1.939c.212-.606-.242-1.272-.97-.97z" style="fill:var(--color3, #fff)"/></symbol><symbol id="icon-logo" viewBox="0 0 32 32"><path d="M9.563 31.309.667 22.413h21.128l8.896 8.896H9.563zm12.232-8.897V1.284l8.896 8.896v21.129l-8.896-8.896z"/></symbol><symbol id="icon-pencil" viewBox="0 0 32 32"><path d="M27 0a5 5 0 0 1 4 8l-2 2-7-7 2-2c.836-.628 1.874-1 3-1zM2 23l-2 9 9-2 18.5-18.5-7-7L2 23zm20.362-11.638-14 14-1.724-1.724 14-14 1.724 1.724z"/></symbol><symbol id="icon-phone" viewBox="0 0 32 32"><path d="M22 20c-2 2-2 4-4 4s-4-2-6-4-4-4-4-6 2-2 4-4-4-8-6-8-6 6-6 6c0 4 4.109 12.109 8 16s12 8 16 8c0 0 6-4 6-6s-6-8-8-6z"/></symbol><symbol id="icon-compass" viewBox="0 0 32 32"><path d="M17 32a1 1 0 0 1-1-1V16H1a1 1 0 0 1-.423-1.906l30-14a1 1 0 0 1 1.329 1.329l-14 30A1 1 0 0 1 17 32zM5.508 14H17a1 1 0 0 1 1 1v11.492L28.931 3.069 5.508 14z"/></symbol><symbol id="icon-mobile" viewBox="0 0 32 32"><path d="M23 0H9C7.35 0 6 1.35 6 3v26c0 1.65 1.35 3 3 3h14c1.65 0 3-1.35 3-3V3c0-1.65-1.35-3-3-3zM12 1.5h8v1h-8v-1zM16 30a2 2 0 1 1-.001-3.999A2 2 0 0 1 16 30zm8-6H8V4h16v20z"/></symbol><symbol id="icon-bubbles4" viewBox="0 0 36 32"><path d="M15 4c-1.583 0-3.112.248-4.543.738-1.341.459-2.535 1.107-3.547 1.926C5.034 8.182 4 10.127 4 12.138c0 1.125.315 2.217.935 3.247.646 1.073 1.622 2.056 2.821 2.842a3.998 3.998 0 0 1 1.761 2.748c.028.187.051.375.068.564.085-.079.169-.16.254-.244a4 4 0 0 1 3.326-1.134c.605.077 1.223.116 1.836.116 1.583 0 3.112-.248 4.543-.738 1.341-.459 2.535-1.107 3.547-1.926 1.876-1.518 2.91-3.463 2.91-5.474s-1.033-3.956-2.91-5.474c-1.012-.819-2.206-1.467-3.547-1.926a13.992 13.992 0 0 0-4.543-.738zm0-4c8.284 0 15 5.435 15 12.139s-6.716 12.139-15 12.139c-.796 0-1.576-.051-2.339-.147C9.439 27.34 5.718 27.916 2 28v-.785c2.008-.98 3.625-2.765 3.625-4.804 0-.285-.022-.564-.063-.837C2.17 19.349 0 15.949 0 12.14 0 5.436 6.716.001 15 .001zm16.125 27.209c0 1.748 1.135 3.278 2.875 4.118V32c-3.223-.072-6.181-.566-8.973-3.316-.661.083-1.337.126-2.027.126-2.983 0-5.732-.805-7.925-2.157 4.521-.016 8.789-1.464 12.026-4.084 1.631-1.32 2.919-2.87 3.825-4.605.961-1.84 1.449-3.799 1.449-5.825 0-.326-.014-.651-.039-.974C34.604 13.038 36 15.591 36 18.405c0 3.265-1.88 6.179-4.82 8.086a4.722 4.722 0 0 0-.055.718z"/></symbol><symbol id="icon-user-plus" viewBox="0 0 32 32"><path d="M12 23c0-4.726 2.996-8.765 7.189-10.319C19.698 11.539 20 10.27 20 9c0-4.971 0-9-6-9S8 4.029 8 9c0 3.096 1.797 6.191 4 7.432v1.649c-6.784.555-12 3.888-12 7.918h12.416a10.962 10.962 0 0 1-.416-3z"/><path d="M23 14c-4.971 0-9 4.029-9 9s4.029 9 9 9 9-4.029 9-9-4.029-9-9-9zm5 10h-4v4h-2v-4h-4v-2h4v-4h2v4h4v2z"/></symbol><symbol id="icon-eye" viewBox="0 0 32 32"><path d="M16 6C9.021 6 2.972 10.064 0 16c2.972 5.936 9.021 10 16 10s13.027-4.064 16-10c-2.972-5.936-9.021-10-16-10zm7.889 5.303A15.212 15.212 0 0 1 28.559 16a15.223 15.223 0 0 1-4.67 4.697C21.527 22.204 18.799 23 16 23s-5.527-.796-7.889-2.303A15.212 15.212 0 0 1 3.441 16a15.223 15.223 0 0 1 5.041-4.925 8 8 0 1 0 15.036 0c.124.074.248.15.371.228zM16 13a3 3 0 1 1-6 0 3 3 0 0 1 6 0z"/></symbol><symbol id="icon-eye-blocked" viewBox="0 0 32 32"><path d="M29.561.439a1.5 1.5 0 0 0-2.121 0l-6.318 6.318A17.626 17.626 0 0 0 16 6C9.021 6 2.972 10.064 0 16a18.323 18.323 0 0 0 5.407 6.472L.439 27.44a1.5 1.5 0 1 0 2.122 2.121l27-27a1.5 1.5 0 0 0 0-2.121zM13 10a3 3 0 0 1 2.841 2.037l-3.804 3.804A3 3 0 0 1 13 10zm-9.559 6a15.223 15.223 0 0 1 5.041-4.925A7.985 7.985 0 0 0 8 13.812c0 1.715.54 3.304 1.459 4.607l-1.904 1.904A15.219 15.219 0 0 1 3.441 16zM24 13.813c0-.849-.133-1.667-.378-2.434L13.566 21.435a8 8 0 0 0 10.435-7.622z"/><path d="M25.938 9.062 23.77 11.23l.118.074a15.212 15.212 0 0 1 4.67 4.697 15.223 15.223 0 0 1-4.67 4.697 14.642 14.642 0 0 1-11.45 1.864l-2.403 2.403a17.587 17.587 0 0 0 5.964 1.036c6.978 0 13.027-4.064 16-10a18.292 18.292 0 0 0-6.062-6.938z"/></symbol><symbol id="icon-facebook2" viewBox="0 0 32 32"><path d="M29 0H3C1.35 0 0 1.35 0 3v26c0 1.65 1.35 3 3 3h13V18h-4v-4h4v-2c0-3.306 2.694-6 6-6h4v4h-4c-1.1 0-2 .9-2 2v2h6l-1 4h-5v14h9c1.65 0 3-1.35 3-3V3c0-1.65-1.35-3-3-3z"/></symbol><symbol id="icon-instagram" viewBox="0 0 32 32"><path d="M16 2.881c4.275 0 4.781.019 6.462.094 1.563.069 2.406.331 2.969.55a4.952 4.952 0 0 1 1.837 1.194 5.015 5.015 0 0 1 1.2 1.838c.219.563.481 1.412.55 2.969.075 1.688.094 2.194.094 6.463s-.019 4.781-.094 6.463c-.069 1.563-.331 2.406-.55 2.969a4.94 4.94 0 0 1-1.194 1.837 5.02 5.02 0 0 1-1.837 1.2c-.563.219-1.413.481-2.969.55-1.688.075-2.194.094-6.463.094s-4.781-.019-6.463-.094c-1.563-.069-2.406-.331-2.969-.55a4.952 4.952 0 0 1-1.838-1.194 5.02 5.02 0 0 1-1.2-1.837c-.219-.563-.481-1.413-.55-2.969-.075-1.688-.094-2.194-.094-6.463s.019-4.781.094-6.463c.069-1.563.331-2.406.55-2.969a4.964 4.964 0 0 1 1.194-1.838 5.015 5.015 0 0 1 1.838-1.2c.563-.219 1.412-.481 2.969-.55 1.681-.075 2.188-.094 6.463-.094zM16 0c-4.344 0-4.887.019-6.594.094-1.7.075-2.869.35-3.881.744-1.056.412-1.95.956-2.837 1.85a7.833 7.833 0 0 0-1.85 2.831C.444 6.538.169 7.7.094 9.4.019 11.113 0 11.656 0 16s.019 4.887.094 6.594c.075 1.7.35 2.869.744 3.881.413 1.056.956 1.95 1.85 2.837a7.82 7.82 0 0 0 2.831 1.844c1.019.394 2.181.669 3.881.744 1.706.075 2.25.094 6.594.094s4.888-.019 6.594-.094c1.7-.075 2.869-.35 3.881-.744 1.05-.406 1.944-.956 2.831-1.844s1.438-1.781 1.844-2.831c.394-1.019.669-2.181.744-3.881.075-1.706.094-2.25.094-6.594s-.019-4.887-.094-6.594c-.075-1.7-.35-2.869-.744-3.881a7.506 7.506 0 0 0-1.831-2.844A7.82 7.82 0 0 0 26.482.843C25.463.449 24.301.174 22.601.099c-1.712-.081-2.256-.1-6.6-.1z"/><path d="M16 7.781c-4.537 0-8.219 3.681-8.219 8.219s3.681 8.219 8.219 8.219 8.219-3.681 8.219-8.219A8.221 8.221 0 0 0 16 7.781zm0 13.55a5.331 5.331 0 1 1 0-10.663 5.331 5.331 0 0 1 0 10.663zM26.462 7.456a1.919 1.919 0 1 1-3.838 0 1.919 1.919 0 0 1 3.838 0z"/></symbol><symbol id="icon-whatsapp" viewBox="0 0 32 32"><path d="M27.281 4.65C24.287 1.65 20.306 0 16.062 0 7.324 0 .212 7.112.212 15.856c0 2.794.731 5.525 2.119 7.925L.081 32l8.406-2.206a15.858 15.858 0 0 0 7.575 1.931h.006c8.738 0 15.856-7.113 15.856-15.856 0-4.238-1.65-8.219-4.644-11.219zm-11.212 24.4a13.17 13.17 0 0 1-6.713-1.837l-.481-.288-4.987 1.306 1.331-4.863-.313-.5a13.086 13.086 0 0 1-2.019-7.012c0-7.269 5.912-13.181 13.188-13.181 3.519 0 6.831 1.375 9.319 3.862a13.108 13.108 0 0 1 3.856 9.325c-.006 7.275-5.919 13.188-13.181 13.188zm7.225-9.875c-.394-.2-2.344-1.156-2.706-1.288s-.625-.2-.894.2c-.262.394-1.025 1.288-1.256 1.556-.231.262-.462.3-.856.1s-1.675-.619-3.188-1.969c-1.175-1.05-1.975-2.35-2.206-2.744s-.025-.613.175-.806c.181-.175.394-.463.594-.694s.262-.394.394-.662c.131-.262.069-.494-.031-.694s-.894-2.15-1.219-2.944c-.319-.775-.65-.669-.894-.681-.231-.012-.494-.012-.756-.012s-.694.1-1.056.494c-.363.394-1.387 1.356-1.387 3.306s1.419 3.831 1.619 4.1c.2.262 2.794 4.269 6.769 5.981.944.406 1.681.65 2.256.837.95.3 1.813.256 2.494.156.762-.113 2.344-.956 2.675-1.881s.331-1.719.231-1.881c-.094-.175-.356-.275-.756-.475z"/></symbol><symbol id="icon-telegram" viewBox="0 0 32 32"><path d="M16 0C7.162 0 0 7.162 0 16s7.162 16 16 16 16-7.163 16-16S24.837 0 16 0zm7.863 10.969-2.625 12.369c-.181.881-.712 1.087-1.45.681l-4-2.956-1.919 1.869c-.225.219-.4.4-.8.4-.519 0-.431-.194-.606-.688L11.1 18.169l-3.956-1.231c-.856-.262-.862-.85.194-1.269l15.412-5.95c.7-.319 1.381.169 1.113 1.25z"/></symbol><symbol id="icon-github" viewBox="0 0 32 32"><path d="M16 .395c-8.836 0-16 7.163-16 16 0 7.069 4.585 13.067 10.942 15.182.8.148 1.094-.347 1.094-.77 0-.381-.015-1.642-.022-2.979-4.452.968-5.391-1.888-5.391-1.888-.728-1.849-1.776-2.341-1.776-2.341-1.452-.993.11-.973.11-.973 1.606.113 2.452 1.649 2.452 1.649 1.427 2.446 3.743 1.739 4.656 1.33.143-1.034.558-1.74 1.016-2.14-3.554-.404-7.29-1.777-7.29-7.907 0-1.747.625-3.174 1.649-4.295-.166-.403-.714-2.03.155-4.234 0 0 1.344-.43 4.401 1.64a15.353 15.353 0 0 1 4.005-.539c1.359.006 2.729.184 4.008.539 3.054-2.07 4.395-1.64 4.395-1.64.871 2.204.323 3.831.157 4.234 1.026 1.12 1.647 2.548 1.647 4.295 0 6.145-3.743 7.498-7.306 7.895.574.497 1.085 1.47 1.085 2.963 0 2.141-.019 3.864-.019 4.391 0 .426.288.925 1.099.768C27.421 29.457 32 23.462 32 16.395c0-8.837-7.164-16-16-16z"/></symbol><symbol id="icon-linkedin2" viewBox="0 0 32 32"><path d="M12 12h5.535v2.837h.079c.77-1.381 2.655-2.837 5.464-2.837C28.92 12 30 15.637 30 20.367V30h-5.769v-8.54c0-2.037-.042-4.657-3.001-4.657-3.005 0-3.463 2.218-3.463 4.509V30H12V12zM2 12h6v18H2V12zm6-5a3 3 0 1 1-6 0 3 3 0 0 1 6 0z"/></symbol></defs></svg>