<svg xmlns="http://www.w3.org/2000/svg" aria-hidden="true" style="position:absolute;width:0;height:0;overflow:hidden"><defs><symbol id="icon-photost" viewBox="0 0 32 32"><path d="M16 .395c-8.836 0-16 7.163-16 16 0 7.069 4.585 13.067 10.942 15.182.8.148 1.094-.347 1.094-.77 0-.381-.015-1.642-.022-2.979-4.452.968-5.391-1.888-5.391-1.888-.728-1.849-1.776-2.341-1.776-2.341-1.452-.993.11-.973.11-.973 1.606.113 2.452 1.649 2.452 1.649 1.427 2.446 3.743 1.739 4.656 1.33.143-1.034.558-1.74 1.016-2.14-3.554-.404-7.29-1.777-7.29-7.907 0-1.747.625-3.174 1.649-4.295-.166-.403-.714-2.03.155-4.234 0 0 1.344-.43 4.401 1.64a15.353 15.353 0 0 1 4.005-.539c1.359.006 2.729.184 4.008.539 3.054-2.07 4.395-1.64 4.395-1.64.871 2.204.323 3.831.157 4.234 1.026 1.12 1.647 2.548 1.647 4.295 0 6.145-3.743 7.498-7.306 7.895.574.497 1.085 1.47 1.085 2.963 0 2.141-.019 3.864-.019 4.391 0 .426.288.925 1.099.768C27.421 29.457 32 23.462 32 16.395c0-8.837-7.164-16-16-16z"/></symbol><symbol id="icon-client-1" viewBox="0 0 59 32"><path fill="#afb1b8" d="m24.348 8 2.438 2.308-4.524-.003v11.196h11.826V17.22l2.435 2.305V8H24.349zm9.632 8.949-6.911-6.543h6.911v6.543zm-2.146 2.914h-7.702v-7.53h.544v7.02h7.157v.51zm-5.883 3.128h.238l-.414.781v.455h-.216v-.455l-.415-.781h.239l.285.586.285-.586zm.357 1.236.1-.288h.479l.101.288h.224l-.468-1.236h-.193l-.467 1.236h.223zm.34-.974.179.513h-.358l.179-.513zm1.133.484a.744.744 0 0 1 .184-.171c-.048-.061-.082-.112-.101-.155s-.028-.084-.028-.123c0-.097.029-.173.088-.229s.138-.085.238-.085c.09 0 .164.027.221.08s.087.118.087.196c0 .052-.013.099-.039.143s-.069.086-.128.129l-.084.061.239.282a.486.486 0 0 0 .052-.227h.179a.618.618 0 0 1-.107.374l.182.215h-.239l-.07-.082c-.088.066-.194.099-.316.099s-.22-.032-.294-.097a.325.325 0 0 1-.063-.411zm.558.273-.27-.318-.026.019c-.068.052-.102.11-.102.177 0 .057.018.104.055.139s.086.053.148.053a.31.31 0 0 0 .195-.07zm-.222-.548.094-.065.026-.021a.153.153 0 0 0 .053-.12c0-.032-.012-.06-.037-.082s-.055-.035-.093-.035c-.04 0-.072.014-.096.041s-.036.061-.036.103c0 .048.029.107.087.179zm2.013.672a.498.498 0 0 1-.339.11.453.453 0 0 1-.434-.27.723.723 0 0 1-.064-.3v-.115c0-.117.021-.219.062-.308s.101-.157.177-.206a.5.5 0 0 1 .268-.072c.136 0 .246.037.329.111s.132.179.145.314h-.214c-.01-.089-.036-.153-.078-.192s-.102-.059-.183-.059c-.093 0-.165.034-.216.103s-.075.168-.076.3v.11c0 .134.024.235.071.306s.118.105.211.105c.084 0 .148-.019.19-.057s.069-.101.081-.189h.214a.445.445 0 0 1-.146.309zm1.262-.173c-.042.091-.102.161-.18.211s-.167.073-.268.073c-.1 0-.19-.024-.268-.073s-.139-.119-.182-.21a.754.754 0 0 1-.065-.313v-.07c0-.121.021-.227.064-.319a.477.477 0 0 1 .449-.285.477.477 0 0 1 .448.282.747.747 0 0 1 .065.317v.069a.757.757 0 0 1-.063.319zm-.23-.699a.254.254 0 0 0-.22-.11c-.093 0-.166.037-.218.11s-.079.175-.08.308v.071c0 .136.026.241.079.315s.127.111.221.111c.095 0 .168-.036.219-.109s.077-.178.077-.318v-.065a.539.539 0 0 0-.078-.315z" style="fill:var(--color1, #afb1b8)"/></symbol><symbol id="icon-client-2" viewBox="0 0 59 32"><path fill="#afb1b8" d="M19.529 12.905h-.001c-.834 0-1.51.601-1.51 1.342v.001c0 .741.676 1.342 1.51 1.342h.001c.834 0 1.51-.601 1.51-1.342v-.001c0-.741-.676-1.342-1.51-1.342zM30.677 12.476c-.002-1.03-.464-2.016-1.283-2.744s-1.929-1.138-3.088-1.141c-1.159.002-2.27.412-3.089 1.14s-1.281 1.715-1.283 2.745v5.678s8.742-.865 8.743-5.677v-.001zM14.957 20.017c.002.716.323 1.403.893 1.91s1.342.792 2.148.794c.806-.002 1.578-.288 2.148-.794s.891-1.193.893-1.909v-3.951s-6.083.603-6.083 3.95zm3.041.708c-.158 0-.311-.041-.442-.119s-.233-.188-.293-.318c-.06-.129-.076-.272-.045-.409s.107-.263.218-.362c.111-.099.253-.166.408-.194s.315-.013.46.04c.146.054.27.144.357.261s.134.253.134.393c0 .093-.02.186-.06.272s-.098.165-.172.23c-.074.066-.162.118-.259.154s-.201.054-.305.054v-.003zM24.145 20.335h-.587v.606h-.306v-1.484h.966v.248h-.66v.383h.587v.247zm1.47-.102c0 .146-.026.274-.077.384a.583.583 0 0 1-.552.345.589.589 0 0 1-.553-.342.876.876 0 0 1-.081-.379v-.073c0-.146.026-.274.078-.385a.583.583 0 0 1 .553-.346c.123 0 .233.03.329.09.096.059.171.144.223.256s.079.239.079.384v.066zm-.31-.067c0-.156-.028-.274-.084-.355s-.135-.121-.238-.121c-.103 0-.182.04-.237.12s-.084.196-.085.351v.072c0 .151.028.269.084.353s.136.125.241.125c.103 0 .181-.04.236-.12s.083-.198.084-.353v-.072zm1.301.386c0-.058-.02-.102-.061-.133s-.114-.064-.22-.098a1.662 1.662 0 0 1-.252-.102c-.169-.091-.253-.214-.253-.368 0-.08.022-.151.067-.214s.11-.112.195-.148c.085-.035.18-.053.285-.053s.2.019.283.058c.083.038.147.092.193.162s.069.149.069.238h-.306c0-.068-.021-.121-.064-.158s-.103-.057-.18-.057c-.075 0-.133.016-.174.048s-.062.073-.062.124c0 .048.024.089.072.121s.121.063.215.092c.174.052.301.117.38.195s.119.174.119.289c0 .128-.049.229-.146.303s-.228.109-.392.109c-.114 0-.218-.021-.312-.062s-.165-.099-.215-.172a.442.442 0 0 1-.073-.253h.307c0 .164.098.246.294.246.073 0 .129-.015.17-.044s.061-.071.061-.124zm1.632-.847h-.454v1.236h-.306v-1.236h-.448v-.248h1.209v.248zm1.068.594h-.587v.397h.689v.246h-.995v-1.484h.993v.248h-.687v.354h.587v.239zm.83.099h-.244v.543h-.306v-1.484h.551c.175 0 .31.039.406.117s.143.189.143.331c0 .101-.022.186-.066.254s-.11.121-.199.161l.321.606v.014h-.328l-.278-.543zm-.243-.247h.247c.077 0 .136-.019.178-.058s.063-.093.063-.162c0-.07-.02-.125-.06-.165s-.1-.06-.182-.06h-.246v.445zm1.852.268v.523h-.306v-1.484h.579c.111 0 .209.02.293.061a.461.461 0 0 1 .264.43c0 .145-.05.26-.15.344s-.237.125-.413.125h-.268zm0-.248h.273c.081 0 .142-.019.184-.057s.064-.092.064-.163c0-.073-.021-.131-.064-.176s-.102-.068-.177-.069h-.28v.466zm1.934.128h-.587v.397h.689v.246h-.995v-1.484h.993v.248h-.687v.354h.587v.239zm1.419-.594h-.454v1.236h-.306v-1.236h-.448v-.248h1.209v.248zm1.068.594h-.587v.397h.689v.246h-.994v-1.484h.992v.248h-.687v.354h.587v.239zm.83.099h-.243v.543h-.306v-1.484h.551c.175 0 .31.039.406.117s.143.189.143.331c0 .101-.022.186-.066.254s-.11.121-.199.161l.321.606v.014h-.328l-.278-.543zm-.243-.247H37c.077 0 .136-.019.178-.058s.063-.093.063-.162c0-.07-.02-.125-.06-.165-.039-.04-.1-.06-.182-.06h-.246v.445zm1.796.401c0-.058-.021-.102-.061-.133s-.114-.064-.22-.098a1.602 1.602 0 0 1-.251-.102c-.169-.091-.253-.214-.253-.368 0-.08.023-.151.067-.214.046-.063.111-.112.195-.148s.18-.053.285-.053c.106 0 .2.019.283.058s.147.092.192.162c.046.07.07.149.07.238h-.306c0-.068-.022-.121-.064-.158s-.103-.057-.18-.057c-.075 0-.133.016-.174.048s-.062.073-.062.124c0 .048.024.089.072.121s.121.063.215.092c.174.052.301.117.38.195s.119.174.119.289c0 .128-.049.229-.146.303s-.228.109-.392.109c-.114 0-.218-.021-.312-.062s-.165-.099-.215-.172a.442.442 0 0 1-.073-.253h.307c0 .164.098.246.294.246.073 0 .129-.015.17-.044s.061-.071.061-.124z" style="fill:var(--color1, #afb1b8)"/></symbol><symbol id="icon-client-3" viewBox="0 0 59 32"><path fill="#afb1b8" d="M23.794 22.644c.006 0 .011.001.016.003l.013.008.076.073a.627.627 0 0 1-.213.138.817.817 0 0 1-.303.049.811.811 0 0 1-.285-.046.579.579 0 0 1-.352-.331.675.675 0 0 1-.048-.258.596.596 0 0 1 .199-.46.687.687 0 0 1 .228-.131.903.903 0 0 1 .293-.046.778.778 0 0 1 .272.042.745.745 0 0 1 .204.116l-.064.077a.073.073 0 0 1-.016.014.053.053 0 0 1-.053-.002l-.034-.021-.047-.026c-.02-.01-.042-.018-.064-.026a.634.634 0 0 0-.409.006.45.45 0 0 0-.272.252.518.518 0 0 0-.039.204.534.534 0 0 0 .039.208.454.454 0 0 0 .105.154.426.426 0 0 0 .157.096.559.559 0 0 0 .195.033.753.753 0 0 0 .116-.007.472.472 0 0 0 .25-.106.059.059 0 0 1 .036-.013zM25.984 22.28a.633.633 0 0 1-.051.256c-.031.074-.08.142-.143.199s-.14.101-.224.131a.918.918 0 0 1-.577 0 .664.664 0 0 1-.223-.131.587.587 0 0 1-.144-.201.67.67 0 0 1 0-.513.6.6 0 0 1 .144-.202.662.662 0 0 1 .223-.126.904.904 0 0 1 .577 0c.084.03.16.074.224.131s.111.125.143.199c.035.082.052.17.051.258zm-.199 0a.54.54 0 0 0-.036-.206.43.43 0 0 0-.261-.251.667.667 0 0 0-.419 0 .455.455 0 0 0-.16.097.411.411 0 0 0-.102.154.607.607 0 0 0 0 .412.411.411 0 0 0 .262.25.682.682 0 0 0 .419 0 .439.439 0 0 0 .16-.096.43.43 0 0 0 .101-.154.54.54 0 0 0 .036-.206zM27.479 22.496l.02.046.022-.046c.008-.015.015-.031.025-.045l.485-.765c.009-.013.018-.021.027-.024a.133.133 0 0 1 .04-.004h.143v1.245h-.17V21.906l-.487.776c-.006.012-.016.021-.029.028s-.027.01-.042.01h-.027c-.015 0-.029-.003-.042-.01s-.022-.017-.028-.028l-.502-.781v.999h-.164v-1.242h.143a.136.136 0 0 1 .04.004.058.058 0 0 1 .027.024l.495.766c.01.014.018.029.025.044zM29.302 22.434v.466h-.19v-1.243h.423a.934.934 0 0 1 .236.027.49.49 0 0 1 .167.077.32.32 0 0 1 .095.122.383.383 0 0 1 .032.159.351.351 0 0 1-.137.283.479.479 0 0 1-.168.082.8.8 0 0 1-.229.029l-.23-.003zm0-.134h.23a.52.52 0 0 0 .147-.019.313.313 0 0 0 .106-.054.209.209 0 0 0 .064-.082.255.255 0 0 0 .023-.105c.002-.035-.004-.069-.019-.101s-.037-.061-.066-.085a.408.408 0 0 0-.255-.067h-.23v.512zM31.852 22.902h-.15a.076.076 0 0 1-.042-.012.086.086 0 0 1-.025-.029l-.129-.301h-.648l-.134.301a.07.07 0 0 1-.067.04h-.15l.569-1.245h.197l.577 1.245zm-.939-.463h.535l-.226-.507a.82.82 0 0 1-.043-.117l-.022.065a.586.586 0 0 1-.021.053l-.224.506zM32.671 21.662a.076.076 0 0 1 .028.022l.83.939v-.967h.17v1.245h-.095c-.013 0-.027-.002-.039-.007s-.022-.014-.03-.023l-.829-.938v.968h-.17v-1.245h.101c.012 0 .023.002.034.006zM35.097 22.407v.494h-.19v-.494l-.525-.75h.17a.065.065 0 0 1 .041.011c.01.008.019.017.026.028l.328.484a.538.538 0 0 1 .058.111l.025-.054a.397.397 0 0 1 .032-.057l.323-.487a.103.103 0 0 1 .025-.026.059.059 0 0 1 .041-.012h.172l-.526.753zM27.385 19.567c.082.009.166.017.25.023 1.28-.497 2.362-1.311 3.112-2.34s1.134-2.227 1.105-3.445l-1.41-1.225c.287 1.296.153 2.637-.387 3.871s-1.465 2.313-2.67 3.117z" style="fill:var(--color1, #afb1b8)"/><path fill="#afb1b8" d="m26.881 19.51.038.007c1.288-.801 2.271-1.919 2.82-3.209s.64-2.695.261-4.031l-2.009-1.745c.812 1.434 1.139 3.04.943 4.629s-.908 3.098-2.053 4.35zM33.693 15.244c-.341 1.338-1.17 2.545-2.363 3.441a7.477 7.477 0 0 1-1.123.7c.972-.248 1.865-.687 2.61-1.282s1.324-1.332 1.69-2.152l-.815-.707z" style="fill:var(--color1, #afb1b8)"/><path fill="#afb1b8" d="m33.374 15.047-1.16-1.008c-.022 1.149-.398 2.272-1.089 3.252s-1.671 1.781-2.838 2.321h.006c.26 0 .52-.014.779-.04 1.091-.387 2.055-1.003 2.806-1.792s1.265-1.728 1.497-2.732zM27.049 9.795l-1.384-1.204c-1.237.415-2.301 1.145-3.052 2.095s-1.156 2.074-1.159 3.226c.005 1.273.498 2.508 1.401 3.511s2.166 1.714 3.588 2.022c1.269-1.343 2.012-3.003 2.121-4.739s-.422-3.456-1.515-4.911zM36.57 14.862c-.005-1.51-.698-2.958-1.927-4.026s-2.895-1.67-4.633-1.674a7.353 7.353 0 0 0-2.349.38l8.471 7.36c.29-.651.439-1.342.438-2.04z" style="fill:var(--color1, #afb1b8)"/></symbol><symbol id="icon-client-4" viewBox="0 0 59 32"><path fill="#afb1b8" d="M28.561 7.629c.08 0 .166.007.252.015l.025.002c.415.029.827.091 1.232.186v-.996a7.396 7.396 0 0 0-1.271-.203 11.43 11.43 0 0 0-.514-.025h-.149c-.861.003-1.718.114-2.552.329-.95.237-1.861.608-2.707 1.101v9.877a10.993 10.993 0 0 1 2.581-1.006c.71-.181 1.435-.292 2.166-.333h.029a8.98 8.98 0 0 1 .37-.011v-1.012c-.95.012-1.895.138-2.816.374-.341.088-.67.184-.978.29l-.352.119V8.635l.15-.073a9.846 9.846 0 0 1 3.69-.933c.14-.007.281-.011.419-.011h.158c.073.002.146.004.219.008h.047zm1.753 1.018c.221.017.45.025.681.025a10.942 10.942 0 0 0 2.683-.344 11.049 11.049 0 0 0 2.58-1.007v9.701c-.847.493-1.759.864-2.708 1.101-.834.214-1.691.325-2.552.328a7.802 7.802 0 0 1-1.936-.228V8.459c.15.034.304.066.46.093.257.043.528.075.792.095zm4.937.076-.352.119c-.324.109-.65.206-.978.293-.956.246-1.938.371-2.924.375-.23 0-.441-.006-.645-.019l-.281-.019v7.922l.241.021c.223.019.454.029.686.029a9.326 9.326 0 0 0 2.303-.298 9.582 9.582 0 0 0 1.799-.647l.151-.073V8.722zM23.561 21.291a.53.53 0 0 0-.392-.158.585.585 0 0 0-.226.042.519.519 0 0 0-.289.293.582.582 0 0 0-.041.218v1.32a.63.63 0 0 0 .052.271.482.482 0 0 0 .313.271c.064.018.13.027.197.027a.55.55 0 0 0 .546-.555v-.148h-.345v.118a.319.319 0 0 1-.02.118.206.206 0 0 1-.05.074.217.217 0 0 1-.072.038.222.222 0 0 1-.072.012c-.031.004-.062-.001-.09-.014s-.053-.032-.071-.057a.315.315 0 0 1-.046-.177v-1.23a.419.419 0 0 1 .042-.197.174.174 0 0 1 .169-.079.182.182 0 0 1 .154.074.276.276 0 0 1 .057.177v.114h.341v-.134a.63.63 0 0 0-.042-.231.552.552 0 0 0-.115-.186zM25.61 21.276a.605.605 0 0 0-.78 0 .537.537 0 0 0-.134.185.61.61 0 0 0-.05.256v1.266a.623.623 0 0 0 .05.259.516.516 0 0 0 .134.177.534.534 0 0 0 .182.111.605.605 0 0 0 .412 0c.069-.025.132-.063.187-.111s.099-.11.13-.177a.608.608 0 0 0 .05-.259v-1.266a.574.574 0 0 0-.18-.441zm-.161 1.706c.003.034-.002.068-.014.099s-.031.06-.055.084a.254.254 0 0 1-.324 0 .227.227 0 0 1-.069-.183v-1.266c-.003-.034.002-.068.014-.099s.031-.06.055-.084a.254.254 0 0 1 .324 0 .227.227 0 0 1 .069.183v1.266zM28.302 23.548v-2.396h-.332l-.436 1.268h-.006l-.439-1.268h-.328v2.396h.342V22.09h.006l.335 1.03h.171l.338-1.03h.006v1.458h.342zM30.246 21.32a.478.478 0 0 0-.194-.131.746.746 0 0 0-.248-.037h-.509v2.396h.341v-.936h.176a.631.631 0 0 0 .308-.065.49.49 0 0 0 .187-.183.582.582 0 0 0 .078-.209c.013-.09.02-.181.018-.272a1.403 1.403 0 0 0-.033-.342.506.506 0 0 0-.126-.22zm-.176.73a.29.29 0 0 1-.032.125.193.193 0 0 1-.088.084.345.345 0 0 1-.161.03h-.156v-.815h.176a.327.327 0 0 1 .154.03c.035.02.063.051.08.088a.34.34 0 0 1 .03.134v.159c0 .056.003.113 0 .165h-.004zM31.864 21.152h-.28l-.528 2.396h.341l.1-.515h.465l.1.515h.341l-.541-2.396zm-.315 1.554.168-.869h.006l.167.869h-.341zM34.069 22.595h-.006l-.516-1.443h-.328v2.396h.341v-1.441h.007l.522 1.441h.321v-2.396h-.341v1.443zM36.156 21.152l-.275.953h-.007l-.274-.953h-.362l.469 1.383v1.013h.342v-1.013l.469-1.383h-.361zM22.609 24.224h.165v.462h.112v-.462h.164v-.095h-.44v.095zM23.992 24.13l-.216.556h.119l.046-.126h.222l.047.126h.121l-.221-.556h-.119zm-.018.336.076-.206.076.206h-.151zM25.359 24.481h.128v.072a.213.213 0 0 1-.132.047.14.14 0 0 1-.118-.053.232.232 0 0 1-.041-.145c0-.124.054-.186.16-.186a.118.118 0 0 1 .126.089l.11-.021c-.024-.109-.102-.164-.236-.164a.277.277 0 0 0-.194.072.278.278 0 0 0-.081.214.305.305 0 0 0 .071.209.265.265 0 0 0 .211.081.337.337 0 0 0 .236-.088v-.219h-.241v.094zM26.756 24.13h-.113v.556h.39v-.095h-.277v-.462zM27.937 24.13h-.113v.556h.113v-.556zM29.091 24.501l-.228-.372h-.109v.556h.105v-.363l.224.363h.112v-.556h-.103v.372zM30.135 24.441h.277v-.095h-.277v-.122h.298v-.095h-.411v.556h.422v-.095h-.31v-.15zM32.665 24.349h-.219v-.219h-.112v.556h.112v-.243h.219v.243h.112v-.556h-.112v.219zM33.715 24.441h.278v-.095h-.278v-.122h.299v-.095h-.411v.556h.421v-.095h-.31v-.15zM35.138 24.441c.097-.015.146-.066.146-.155a.129.129 0 0 0-.054-.123.315.315 0 0 0-.163-.033h-.236v.556h.112v-.233h.022a.167.167 0 0 1 .07.012.12.12 0 0 1 .04.041l.121.177h.134l-.068-.109a.395.395 0 0 0-.123-.134zm-.112-.077h-.082v-.14h.088a.288.288 0 0 1 .113.013c.008.007.015.016.019.026s.006.021.006.032a.068.068 0 0 1-.029.055.313.313 0 0 1-.114.013zM36.212 24.441h.277v-.095h-.277v-.122h.299v-.095h-.412v.556h.422v-.095h-.31v-.15z" style="fill:var(--color1, #afb1b8)"/></symbol><symbol id="icon-client-5" viewBox="0 0 59 32"><path fill="#afb1b8" d="M20.437 21.125c.085.096.13.216.128.34.004.081-.011.161-.045.235s-.086.141-.152.194a.92.92 0 0 1-.575.157h-1.01v-2.154h.989a.904.904 0 0 1 .548.143c.064.049.114.111.148.181s.048.146.044.222a.468.468 0 0 1-.115.329.542.542 0 0 1-.301.168.586.586 0 0 1 .341.184zm-1.184-.325h.423a.43.43 0 0 0 .269-.072.251.251 0 0 0 .091-.211c.003-.039-.003-.078-.019-.114s-.04-.069-.071-.096a.44.44 0 0 0-.277-.073h-.416v.565zm.733.826c.034-.027.061-.061.078-.099s.025-.079.022-.12c.003-.042-.005-.083-.023-.121s-.045-.072-.079-.1a.465.465 0 0 0-.287-.078h-.444v.592h.449a.478.478 0 0 0 .284-.075zM22.459 22.051l-.55-.842h-.207v.842h-.473v-2.154h.896a.942.942 0 0 1 .624.183c.125.117.201.271.213.434s-.04.325-.146.457a.753.753 0 0 1-.427.219l.586.861h-.515zm-.757-1.135h.387c.269 0 .403-.109.403-.326a.304.304 0 0 0-.099-.242.443.443 0 0 0-.305-.087h-.392l.005.655zM25.047 21.618h-.943l-.167.433h-.496l.866-2.129h.537l.863 2.129h-.496l-.163-.433zm-.126-.327-.345-.909-.345.909h.689zM28.286 22.051h-.47l-1.054-1.464v1.464h-.469v-2.154h.469l1.054 1.473v-1.473h.47v2.154zM30.968 21.536a.976.976 0 0 1-.425.38 1.496 1.496 0 0 1-.661.136h-.837v-2.154h.837c.229-.005.455.04.661.133.18.083.328.214.425.376a1.164 1.164 0 0 1 0 1.13zm-.538-.052c.134-.143.208-.325.208-.514s-.074-.371-.208-.514a.865.865 0 0 0-.588-.183h-.326v1.394h.326a.864.864 0 0 0 .588-.183zM25.341 7.919s6.066 2.097 5.937 5.131v5.132s-6.061-2.098-5.935-5.132l-.002-5.131zM36.682 16.98a8.793 8.793 0 0 1 3.854-1.3v-1.607c-1.594.562-2.946 1.582-3.854 2.907z" style="fill:var(--color1, #afb1b8)"/><path fill="#afb1b8" d="M35.994 17.464c.937-1.729 2.563-3.063 4.542-3.727V9.108s-8.638 2.987-8.456 7.308v7.306s.385-.134.99-.384c0-.234 0-.469.028-.706.179-2.006 1.22-3.865 2.896-5.168z" style="fill:var(--color1, #afb1b8)"/><path fill="#afb1b8" d="M35.172 20.178a6.919 6.919 0 0 1 .302-1.496c-1.043 1.125-1.675 2.522-1.806 3.993a5.81 5.81 0 0 0-.023.421 25.701 25.701 0 0 0 1.661-.802 6.936 6.936 0 0 1-.134-2.116zM35.515 20.205a6.629 6.629 0 0 0 .107 1.916c2.36-1.293 5.012-3.291 4.91-5.705v-.21c-1.686.173-3.264.848-4.49 1.921a6.711 6.711 0 0 0-.526 2.079z" style="fill:var(--color1, #afb1b8)"/></symbol><symbol id="icon-client-6" viewBox="0 0 59 32"><path fill="#afb1b8" d="M29.713 15.098a1.024 1.024 0 0 1-.21-.692v-1.003c0-.307.07-.541.209-.701s.379-.239.718-.239c.319 0 .546.068.679.204a.833.833 0 0 1 .201.6v.236h-.571v-.239a1.153 1.153 0 0 0-.017-.234.224.224 0 0 0-.082-.139.33.33 0 0 0-.207-.054.346.346 0 0 0-.217.057.27.27 0 0 0-.095.153 1.15 1.15 0 0 0-.022.248v1.217a.624.624 0 0 0 .073.342c.028.036.068.065.114.083s.097.025.147.019a.314.314 0 0 0 .202-.055.245.245 0 0 0 .085-.148c.013-.081.019-.162.018-.244v-.247h.571v.225a.916.916 0 0 1-.197.63c-.131.149-.355.223-.683.223s-.577-.08-.717-.245zM32.089 15.109c-.144-.156-.216-.384-.216-.685v-1.055c0-.298.072-.523.216-.676s.385-.229.723-.229c.336 0 .575.076.72.229s.217.379.217.676v1.055c0 .298-.073.526-.22.684s-.385.236-.717.236-.578-.08-.723-.235zm.989-.253a.592.592 0 0 0 .069-.312v-1.292a.579.579 0 0 0-.067-.306c-.029-.037-.069-.066-.117-.084s-.099-.024-.15-.018c-.051-.006-.103 0-.151.018s-.088.047-.117.084a.569.569 0 0 0-.069.306v1.298a.572.572 0 0 0 .069.312c.033.033.074.059.12.077a.404.404 0 0 0 .414-.077v-.006zM34.436 12.495h.614l.462 1.946.473-1.946h.598l.061 2.809h-.442l-.047-1.952-.456 1.952h-.354l-.473-1.96-.044 1.96h-.447l.056-2.809zM37.332 12.495h.957c.551 0 .827.266.827.798 0 .509-.29.764-.871.763h-.326v1.249h-.591l.003-2.809zm.818 1.201a.464.464 0 0 0 .325-.089.451.451 0 0 0 .085-.317.88.88 0 0 0-.029-.255c-.008-.028-.023-.054-.043-.077s-.046-.042-.074-.057a.62.62 0 0 0-.264-.045h-.229v.839h.229zM39.968 12.495h.635l.651 2.809h-.551l-.129-.648h-.566l-.133.648h-.559l.651-2.809zm.543 1.836-.221-1.179-.221 1.179h.442zM41.78 12.495h.414l.792 1.603v-1.603h.49v2.809h-.393l-.797-1.673v1.673h-.507l.001-2.809zM44.624 14.233l-.658-1.734h.554l.402 1.114.377-1.114h.543l-.65 1.734v1.071h-.567v-1.071zM30.625 16.533v.147h-.482v1.142h-.202V16.68h-.484v-.147h1.169zM32.137 17.821h-.156a.068.068 0 0 1-.044-.012.063.063 0 0 1-.026-.03l-.139-.306h-.669l-.139.306a.084.084 0 0 1-.021.035.067.067 0 0 1-.044.012h-.156l.591-1.288h.206l.598 1.283zm-.979-.478h.558l-.236-.524a1.097 1.097 0 0 1-.044-.121l-.022.068-.021.054-.234.523zM33.155 17.695a.752.752 0 0 0 .37-.07v-.29h-.236c-.006 0-.012 0-.017-.002s-.01-.004-.015-.008c-.004-.003-.007-.006-.009-.011s-.003-.008-.003-.013v-.099h.458v.494a.822.822 0 0 1-.249.105 1.206 1.206 0 0 1-.321.035.882.882 0 0 1-.298-.048.734.734 0 0 1-.236-.135.609.609 0 0 1-.206-.471.6.6 0 0 1 .205-.473.721.721 0 0 1 .236-.134.995.995 0 0 1 .317-.048c.055 0 .11.004.164.011a.85.85 0 0 1 .259.084.961.961 0 0 1 .103.067l-.057.08a.055.055 0 0 1-.046.025.079.079 0 0 1-.037-.01.48.48 0 0 1-.058-.031.558.558 0 0 0-.188-.064.842.842 0 0 0-.378.025.455.455 0 0 0-.284.262.601.601 0 0 0 0 .43.499.499 0 0 0 .291.264.683.683 0 0 0 .234.026zM35.039 17.674h.645v.147h-.842v-1.288h.202l-.005 1.142zM36.355 17.821h-.202v-1.288h.202v1.288zM37.106 16.539a.104.104 0 0 1 .031.023l.864.971a.353.353 0 0 1 0-.046V16.527h.176v1.294h-.102a.095.095 0 0 1-.044-.007.128.128 0 0 1-.032-.024l-.863-.97v1.002h-.169v-1.289h.105c.011 0 .023.002.033.006zM39.665 16.533v.142h-.716v.425h.58v.137h-.58v.44h.716v.142h-.924v-1.285h.924zM18.491 8.576l8.972 2.199v7.707l-8.972-2.198V8.576zm-.575-.657v8.739l10.122 2.482v-8.738L17.916 7.919z" style="fill:var(--color1, #afb1b8)"/><path fill="#afb1b8" d="m23.34 23.197-10.123-2.484v-8.739l10.123 2.483v8.74z" style="fill:var(--color1, #afb1b8)"/><path fill="#afb1b8" d="m18.083 8.477 8.855 2.172-3.766 3.252-8.856-2.173 3.767-3.251zm-.167-.558-4.698 4.056 10.123 2.483 4.697-4.056-10.122-2.483zM23.91 22.706l4.127-3.564-4.127-1.013v4.577z" style="fill:var(--color1, #afb1b8)"/></symbol><symbol id="icon-masters" viewBox="0 0 32 32"><path fill="#d3cce3" d="M2.769 4.008c-.138 0-.252-.112-.252-.25s.109-.25.247-.25h.005a.25.25 0 0 1 0 .5zm1 0c-.138 0-.252-.112-.252-.25s.109-.25.247-.25h.005a.25.25 0 0 1 0 .5zm1 0c-.138 0-.252-.112-.252-.25s.109-.25.247-.25h.005a.25.25 0 0 1 0 .5zm21.993 6.498c-.138 0-.252-.112-.252-.25s.109-.25.247-.25h.005a.25.25 0 0 1 0 .5zm4.983 10.988H.255a.25.25 0 0 1 0-.5h31.49a.25.25 0 0 1 0 .5zM16 23.993c-.551 0-1-.449-1-1s.449-1 1-1 1 .449 1 1-.449 1-1 1zm0-1.5a.5.5 0 1 0 0 1 .5.5 0 0 0 0-1zm-4.246 7.999a.25.25 0 0 1-.244-.305v.002l1-4.499a.25.25 0 1 1 .488.11v-.002l-1 4.499a.25.25 0 0 1-.244.196zm8.492 0a.25.25 0 0 1-.244-.194v-.002l-1-4.499a.25.25 0 0 1 .188-.298h.002a.25.25 0 0 1 .298.19l1 4.499a.25.25 0 0 1-.244.304z" style="fill:var(--color2, #d3cce3)"/><path fill="#d3cce3" d="M20.999 30.492h-9.997a.25.25 0 0 1 0-.5h9.997a.25.25 0 0 1 0 .5zm9.247-10.489H1.755a.25.25 0 0 1-.25-.25V3.258a.25.25 0 0 1 .25-.25h28.491a.25.25 0 0 1 .25.25v16.495a.25.25 0 0 1-.25.25zm-28.242-.5h27.991V3.508H2.004v15.995z" style="fill:var(--color2, #d3cce3)"/><path fill="#d3cce3" d="M30.246 25.001H1.755a1.75 1.75 0 0 1-1.749-1.749V3.258a1.75 1.75 0 0 1 1.749-1.749h28.491c.965 0 1.75.785 1.75 1.749v19.994c0 .965-.785 1.75-1.75 1.75zM1.754 2.008c-.689 0-1.25.561-1.25 1.25v19.994c0 .689.56 1.25 1.25 1.25h28.491c.689 0 1.25-.56 1.25-1.25V3.258c0-.689-.56-1.25-1.25-1.25H1.754z" style="fill:var(--color2, #d3cce3)"/><path fill="#d3cce3" d="M30.246 25.993H1.755a1.73 1.73 0 0 1-1.749-1.749v-1a.25.25 0 0 1 .5 0v1c0 .701.549 1.25 1.25 1.25h28.491c.701 0 1.25-.549 1.25-1.25v-.992a.25.25 0 0 1 .5 0v.992a1.73 1.73 0 0 1-1.75 1.749zm0-21.486H1.755a.25.25 0 0 1 0-.5h28.491a.25.25 0 0 1 0 .5zM3.254 19.003a.25.25 0 0 1-.25-.25V5.257a.25.25 0 0 1 .5 0v13.496a.25.25 0 0 1-.25.25z" style="fill:var(--color2, #d3cce3)"/><path fill="#d3cce3" d="M25.747 20.003a.25.25 0 0 1-.25-.25V4.258a.25.25 0 0 1 .5 0v15.495a.25.25 0 0 1-.25.25z" style="fill:var(--color2, #d3cce3)"/><path fill="#d3cce3" d="M30.246 8.506h-4.499a.25.25 0 0 1 0-.5h4.499a.25.25 0 0 1 0 .5zM3.254 7.007h-1.5a.25.25 0 0 1 0-.5h1.5a.25.25 0 0 1 0 .5zm0 1.499h-1.5a.25.25 0 0 1 0-.5h1.5a.25.25 0 0 1 0 .5zm0 1.5h-1.5a.25.25 0 0 1 0-.5h1.5a.25.25 0 0 1 0 .5zm0 1.499h-1.5a.25.25 0 0 1 0-.5h1.5a.25.25 0 0 1 0 .5zm0 1.5h-1.5a.25.25 0 0 1 0-.5h1.5a.25.25 0 0 1 0 .5zm0 1.499h-1.5a.25.25 0 0 1 0-.5h1.5a.25.25 0 0 1 0 .5zm0 1.5h-1.5a.25.25 0 0 1 0-.5h1.5a.25.25 0 0 1 0 .5zm0 1.499h-1.5a.25.25 0 0 1 0-.5h1.5a.25.25 0 0 1 0 .5zm0 1.5h-1.5a.25.25 0 0 1 0-.5h1.5a.25.25 0 0 1 0 .5zm0-13.496h-1.5a.25.25 0 0 1 0-.5h1.5a.25.25 0 0 1 0 .5zm25.992.5h-2.499a.25.25 0 0 1 0-.5h2.499a.25.25 0 0 1 0 .5zm0 1h-2.499a.25.25 0 0 1 0-.5h2.499a.25.25 0 0 1 0 .5zm0 3.499h-1.5a.25.25 0 0 1 0-.5h1.5a.25.25 0 0 1 0 .5zm-2.484 1.499c-.138 0-.252-.112-.252-.25s.109-.25.247-.25h.005a.25.25 0 0 1 0 .5zm2.484 0h-1.5a.25.25 0 0 1 0-.5h1.5a.25.25 0 0 1 0 .5zm-2.484 1.5c-.138 0-.252-.112-.252-.25s.109-.25.247-.25h.005a.25.25 0 0 1 0 .5zm2.484 0h-1.5a.25.25 0 0 1 0-.5h1.5a.25.25 0 0 1 0 .5zm-2.484 1.499c-.138 0-.252-.112-.252-.25s.109-.25.247-.25h.005a.25.25 0 0 1 0 .5zm2.484 0h-1.5a.25.25 0 0 1 0-.5h1.5a.25.25 0 0 1 0 .5zm-2.484 1.5c-.138 0-.252-.112-.252-.25s.109-.25.247-.25h.005a.25.25 0 0 1 0 .5zm2.484 0h-1.5a.25.25 0 0 1 0-.5h1.5a.25.25 0 0 1 0 .5zM26.762 18.003c-.138 0-.252-.112-.252-.25s.109-.25.247-.25h.005a.25.25 0 0 1 0 .5zM29.246 18.003h-1.5a.25.25 0 0 1 0-.5h1.5a.25.25 0 0 1 0 .5zM17.25 20.003H5.254a.25.25 0 0 1-.25-.25v-.51c0-.954.507-1.331 1.383-1.659.172-.064.405-.127.664-.198.777-.21 1.952-.528 1.952-1.133a.25.25 0 0 1 .5 0c0 .988-1.341 1.35-2.321 1.615-.242.066-.46.124-.62.184-.831.311-1.058.567-1.058 1.19v.26h11.497v-.26c0-.623-.228-.879-1.058-1.19a7.46 7.46 0 0 0-.62-.184c-.979-.265-2.32-.628-2.32-1.615a.25.25 0 0 1 .5 0c0 .604 1.174.923 1.951 1.132.26.071.493.134.664.198.876.328 1.383.705 1.383 1.659v.51a.25.25 0 0 1-.25.25z" style="fill:var(--color2, #d3cce3)"/><path fill="#d3cce3" d="M9.252 16.504a.25.25 0 0 1-.25-.25v-1.181a.25.25 0 0 1 .5 0v1.181a.25.25 0 0 1-.25.25zm3.999 0a.25.25 0 0 1-.25-.25v-1.21a.25.25 0 0 1 .5 0v1.21a.25.25 0 0 1-.25.25zm-6.498 1.474a.25.25 0 0 1-.25-.25v-6.973a.25.25 0 0 1 .5 0v6.973a.25.25 0 0 1-.25.25zm8.996 0a.25.25 0 0 1-.25-.25l.002-6.973a.25.25 0 0 1 .5 0l-.002 6.973a.25.25 0 0 1-.25.25z" style="fill:var(--color2, #d3cce3)"/><path fill="#d3cce3" d="M15.751 11.005a.25.25 0 0 1-.25-.25c0-.997-.307-4.249-4.25-4.249-3.485 0-4.249 3.067-4.249 4.249a.25.25 0 0 1-.5 0c0-1.321.853-4.749 4.749-4.749 3.502 0 4.75 2.453 4.75 4.749a.25.25 0 0 1-.25.25zm-4.5 5.499c-1.053 0-3.398-1.823-3.714-4.216a.25.25 0 0 1 .214-.28h.001a.252.252 0 0 1 .281.215c.283 2.145 2.429 3.782 3.218 3.782.89 0 3.249-1.958 3.249-4.311a.25.25 0 0 1 .5 0c0 2.535-2.546 4.811-3.749 4.811z" style="fill:var(--color2, #d3cce3)"/><path fill="#d3cce3" d="M6.752 12.005a.25.25 0 0 1-.246-.206v-.002a.25.25 0 0 1 .203-.288h.002c.053-.009 5.319-.944 7.915-3.917a.251.251 0 0 1 .439.164.248.248 0 0 1-.062.165c-2.714 3.108-7.984 4.042-8.206 4.08a.286.286 0 0 1-.043.004z" style="fill:var(--color2, #d3cce3)"/><path fill="#d3cce3" d="M15.75 11.505a.26.26 0 0 1-.04-.003h.001c-1.95-.309-3.11-1.809-3.158-1.873a.25.25 0 0 1 .397-.303v.001c.011.014 1.091 1.405 2.838 1.682a.251.251 0 0 1 .208.287v-.001a.25.25 0 0 1-.247.211zm-7.997 8.498a.25.25 0 0 1-.25-.25v-2.306a.25.25 0 0 1 .5 0v2.306a.25.25 0 0 1-.25.25zm6.997 0a.25.25 0 0 1-.25-.25v-2.306a.25.25 0 0 1 .5 0v2.306a.25.25 0 0 1-.25.25zM23.748 16.004H18.25a.25.25 0 0 1-.25-.25V7.757a.25.25 0 0 1 .25-.25h5.498a.25.25 0 0 1 .25.25v7.997a.25.25 0 0 1-.25.25zm-5.249-.5h4.998V8.006h-4.998v7.498z" style="fill:var(--color2, #d3cce3)"/><path fill="#d3cce3" d="M20.249 10.506a.75.75 0 1 1 .002-1.502.75.75 0 0 1-.002 1.502zm0-1a.25.25 0 1 0 0 .5.25.25 0 0 0 0-.5z" style="fill:var(--color2, #d3cce3)"/><path fill="#d3cce3" d="M22.748 10.006h-1.999a.25.25 0 0 1 0-.5h1.999a.25.25 0 0 1 0 .5zm-2.999 0h-.5a.25.25 0 0 1 0-.5h.5a.25.25 0 0 1 0 .5zM20.249 14.504a.75.75 0 1 1 .002-1.502.75.75 0 0 1-.002 1.502zm0-.999a.25.25 0 0 0 0 .5.25.25 0 0 0 0-.5z" style="fill:var(--color2, #d3cce3)"/><path fill="#d3cce3" d="M22.748 14.005h-1.999a.25.25 0 0 1 0-.5h1.999a.25.25 0 0 1 0 .5zm-2.999 0h-.5a.25.25 0 0 1 0-.5h.5a.25.25 0 0 1 0 .5zM21.748 12.505a.75.75 0 1 1 .002-1.502.75.75 0 0 1-.002 1.502zm0-1a.25.25 0 1 0 0 .5.25.25 0 0 0 0-.5z" style="fill:var(--color2, #d3cce3)"/><path fill="#d3cce3" d="M21.248 12.005h-1.999a.25.25 0 0 1 0-.5h1.999a.25.25 0 0 1 0 .5zm1.5 0h-.5a.25.25 0 0 1 0-.5h.5a.25.25 0 0 1 0 .5z" style="fill:var(--color2, #d3cce3)"/></symbol><symbol id="icon-online-community" viewBox="0 0 32 32"><path fill="#d3cce3" d="M24.001 2.752H7.999C3.588 2.752 0 6.34 0 10.751v10.498c0 4.411 3.588 7.999 7.999 7.999H32V10.751c0-4.411-3.588-7.999-7.999-7.999zm7.019 25.517H7.999a7.028 7.028 0 0 1-7.02-7.02V10.751a7.028 7.028 0 0 1 7.02-7.02h16.002a7.028 7.028 0 0 1 7.02 7.02v17.518z" style="fill:var(--color2, #d3cce3)"/><path fill="#d3cce3" d="M4.003 7.255v17.491h24.495V7.255H4.003zm23.515 16.511H4.982V8.235h22.536v15.531z" style="fill:var(--color2, #d3cce3)"/><path fill="#d3cce3" d="M5.504 8.756v14.489h21.493V8.756H5.504zm.979.979h19.534v6.896l-2.505-2.536-3.012 2.991-1.839-1.769-1.284 1.306A4.014 4.014 0 0 0 14 14.76a3.997 3.997 0 0 0-3.864 4.996H6.484V9.736zm10.181 7.612-2.37 2.409h-3.136A3.015 3.015 0 0 1 14 15.74a3.03 3.03 0 0 1 2.665 1.607zm9.353 2.409h-8.515v.98h8.515v1.529H6.483v-1.529h8.221l3.975-4.04 1.831 1.761 2.995-2.973 2.512 2.543v1.73z" style="fill:var(--color2, #d3cce3)"/><path fill="#d3cce3" d="M7.509 10.742v2.025h.98v-1.045h6.989v-.98zM16.523 10.742h1.502v.98h-1.502v-.98z" style="fill:var(--color2, #d3cce3)"/></symbol><symbol id="icon-logo" viewBox="0 0 32 32"><path d="M9.563 31.309.667 22.413h21.128l8.896 8.896H9.563zm12.232-8.897V1.284l8.896 8.896v21.129l-8.896-8.896z"/></symbol><symbol id="icon-compass" viewBox="0 0 32 32"><path d="M17 32a1 1 0 0 1-1-1V16H1a1 1 0 0 1-.423-1.906l30-14a1 1 0 0 1 1.329 1.329l-14 30A1 1 0 0 1 17 32zM5.508 14H17a1 1 0 0 1 1 1v11.492L28.931 3.069 5.508 14z"/></symbol><symbol id="icon-bubbles4" viewBox="0 0 36 32"><path d="M15 4c-1.583 0-3.112.248-4.543.738-1.341.459-2.535 1.107-3.547 1.926C5.034 8.182 4 10.127 4 12.138c0 1.125.315 2.217.935 3.247.646 1.073 1.622 2.056 2.821 2.842a3.998 3.998 0 0 1 1.761 2.748c.028.187.051.375.068.564.085-.079.169-.16.254-.244a4 4 0 0 1 3.326-1.134c.605.077 1.223.116 1.836.116 1.583 0 3.112-.248 4.543-.738 1.341-.459 2.535-1.107 3.547-1.926 1.876-1.518 2.91-3.463 2.91-5.474s-1.033-3.956-2.91-5.474c-1.012-.819-2.206-1.467-3.547-1.926a13.992 13.992 0 0 0-4.543-.738zm0-4c8.284 0 15 5.435 15 12.139s-6.716 12.139-15 12.139c-.796 0-1.576-.051-2.339-.147C9.439 27.34 5.718 27.916 2 28v-.785c2.008-.98 3.625-2.765 3.625-4.804 0-.285-.022-.564-.063-.837C2.17 19.349 0 15.949 0 12.14 0 5.436 6.716.001 15 .001zm16.125 27.209c0 1.748 1.135 3.278 2.875 4.118V32c-3.223-.072-6.181-.566-8.973-3.316-.661.083-1.337.126-2.027.126-2.983 0-5.732-.805-7.925-2.157 4.521-.016 8.789-1.464 12.026-4.084 1.631-1.32 2.919-2.87 3.825-4.605.961-1.84 1.449-3.799 1.449-5.825 0-.326-.014-.651-.039-.974C34.604 13.038 36 15.591 36 18.405c0 3.265-1.88 6.179-4.82 8.086a4.722 4.722 0 0 0-.055.718z"/></symbol><symbol id="icon-user-plus" viewBox="0 0 32 32"><path d="M12 23c0-4.726 2.996-8.765 7.189-10.319C19.698 11.539 20 10.27 20 9c0-4.971 0-9-6-9S8 4.029 8 9c0 3.096 1.797 6.191 4 7.432v1.649c-6.784.555-12 3.888-12 7.918h12.416a10.962 10.962 0 0 1-.416-3z"/><path d="M23 14c-4.971 0-9 4.029-9 9s4.029 9 9 9 9-4.029 9-9-4.029-9-9-9zm5 10h-4v4h-2v-4h-4v-2h4v-4h2v4h4v2z"/></symbol><symbol id="icon-user-check" viewBox="0 0 32 32"><path d="m30 19-9 9-3-3-2 2 5 5 11-11z"/><path d="M14 24h10v-3.598c-2.101-1.225-4.885-2.066-8-2.321v-1.649c2.203-1.242 4-4.337 4-7.432 0-4.971 0-9-6-9S8 4.029 8 9c0 3.096 1.797 6.191 4 7.432v1.649c-6.784.555-12 3.888-12 7.918h14v-2z"/></symbol><symbol id="icon-wink" viewBox="0 0 32 32"><path d="M16 32c8.837 0 16-7.163 16-16S24.837 0 16 0 0 7.163 0 16s7.163 16 16 16zm0-29c7.18 0 13 5.82 13 13s-5.82 13-13 13S3 23.18 3 16 8.82 3 16 3zm.961 19.22c4.383-.866 7.785-2.861 9.014-5.519C25.298 21.95 20.928 26 15.636 26c-3.726 0-6.996-2.009-8.84-5.03 2.2 1.721 6.079 2.056 10.165 1.249zM20 11c0-1.657.895-3 2-3s2 1.343 2 3-.895 3-2 3-2-1.343-2-3zm-9 .609c-1.306 0-2.417.489-2.829 1.172C8.06 12.598 8 11.776 8 11.57c0-.971 1.343-1.758 3-1.758s3 .787 3 1.758c0 .206-.061 1.028-.171 1.211-.412-.683-1.522-1.172-2.829-1.172z"/></symbol><symbol id="icon-enter" viewBox="0 0 32 32"><path d="M12 16H2v-4h10V8l6 6-6 6zM32 0v26l-12 6v-6H8v-8h2v6h10V6l8-4H10v8H8V0z"/></symbol><symbol id="icon-exit" viewBox="0 0 32 32"><path d="M24 20v-4H14v-4h10V8l6 6zm-2-2v8H12v6L0 26V0h22v10h-2V2H4l8 4v18h8v-6z"/></symbol><symbol id="icon-instagram" viewBox="0 0 32 32"><path d="M16 2.881c4.275 0 4.781.019 6.462.094 1.563.069 2.406.331 2.969.55a4.952 4.952 0 0 1 1.837 1.194 5.015 5.015 0 0 1 1.2 1.838c.219.563.481 1.412.55 2.969.075 1.688.094 2.194.094 6.463s-.019 4.781-.094 6.463c-.069 1.563-.331 2.406-.55 2.969a4.94 4.94 0 0 1-1.194 1.837 5.02 5.02 0 0 1-1.837 1.2c-.563.219-1.413.481-2.969.55-1.688.075-2.194.094-6.463.094s-4.781-.019-6.463-.094c-1.563-.069-2.406-.331-2.969-.55a4.952 4.952 0 0 1-1.838-1.194 5.02 5.02 0 0 1-1.2-1.837c-.219-.563-.481-1.413-.55-2.969-.075-1.688-.094-2.194-.094-6.463s.019-4.781.094-6.463c.069-1.563.331-2.406.55-2.969a4.964 4.964 0 0 1 1.194-1.838 5.015 5.015 0 0 1 1.838-1.2c.563-.219 1.412-.481 2.969-.55 1.681-.075 2.188-.094 6.463-.094zM16 0c-4.344 0-4.887.019-6.594.094-1.7.075-2.869.35-3.881.744-1.056.412-1.95.956-2.837 1.85a7.833 7.833 0 0 0-1.85 2.831C.444 6.538.169 7.7.094 9.4.019 11.113 0 11.656 0 16s.019 4.887.094 6.594c.075 1.7.35 2.869.744 3.881.413 1.056.956 1.95 1.85 2.837a7.82 7.82 0 0 0 2.831 1.844c1.019.394 2.181.669 3.881.744 1.706.075 2.25.094 6.594.094s4.888-.019 6.594-.094c1.7-.075 2.869-.35 3.881-.744 1.05-.406 1.944-.956 2.831-1.844s1.438-1.781 1.844-2.831c.394-1.019.669-2.181.744-3.881.075-1.706.094-2.25.094-6.594s-.019-4.887-.094-6.594c-.075-1.7-.35-2.869-.744-3.881a7.506 7.506 0 0 0-1.831-2.844A7.82 7.82 0 0 0 26.482.843C25.463.449 24.301.174 22.601.099c-1.712-.081-2.256-.1-6.6-.1z"/><path d="M16 7.781c-4.537 0-8.219 3.681-8.219 8.219s3.681 8.219 8.219 8.219 8.219-3.681 8.219-8.219A8.221 8.221 0 0 0 16 7.781zm0 13.55a5.331 5.331 0 1 1 0-10.663 5.331 5.331 0 0 1 0 10.663zM26.462 7.456a1.919 1.919 0 1 1-3.838 0 1.919 1.919 0 0 1 3.838 0z"/></symbol><symbol id="icon-whatsapp" viewBox="0 0 32 32"><path d="M27.281 4.65C24.287 1.65 20.306 0 16.062 0 7.324 0 .212 7.112.212 15.856c0 2.794.731 5.525 2.119 7.925L.081 32l8.406-2.206a15.858 15.858 0 0 0 7.575 1.931h.006c8.738 0 15.856-7.113 15.856-15.856 0-4.238-1.65-8.219-4.644-11.219zm-11.212 24.4a13.17 13.17 0 0 1-6.713-1.837l-.481-.288-4.987 1.306 1.331-4.863-.313-.5a13.086 13.086 0 0 1-2.019-7.012c0-7.269 5.912-13.181 13.188-13.181 3.519 0 6.831 1.375 9.319 3.862a13.108 13.108 0 0 1 3.856 9.325c-.006 7.275-5.919 13.188-13.181 13.188zm7.225-9.875c-.394-.2-2.344-1.156-2.706-1.288s-.625-.2-.894.2c-.262.394-1.025 1.288-1.256 1.556-.231.262-.462.3-.856.1s-1.675-.619-3.188-1.969c-1.175-1.05-1.975-2.35-2.206-2.744s-.025-.613.175-.806c.181-.175.394-.463.594-.694s.262-.394.394-.662c.131-.262.069-.494-.031-.694s-.894-2.15-1.219-2.944c-.319-.775-.65-.669-.894-.681-.231-.012-.494-.012-.756-.012s-.694.1-1.056.494c-.363.394-1.387 1.356-1.387 3.306s1.419 3.831 1.619 4.1c.2.262 2.794 4.269 6.769 5.981.944.406 1.681.65 2.256.837.95.3 1.813.256 2.494.156.762-.113 2.344-.956 2.675-1.881s.331-1.719.231-1.881c-.094-.175-.356-.275-.756-.475z"/></symbol><symbol id="icon-telegram" viewBox="0 0 32 32"><path d="M16 0C7.162 0 0 7.162 0 16s7.162 16 16 16 16-7.163 16-16S24.837 0 16 0zm7.863 10.969-2.625 12.369c-.181.881-.712 1.087-1.45.681l-4-2.956-1.919 1.869c-.225.219-.4.4-.8.4-.519 0-.431-.194-.606-.688L11.1 18.169l-3.956-1.231c-.856-.262-.862-.85.194-1.269l15.412-5.95c.7-.319 1.381.169 1.113 1.25z"/></symbol><symbol id="icon-github" viewBox="0 0 32 32"><path d="M16 .395c-8.836 0-16 7.163-16 16 0 7.069 4.585 13.067 10.942 15.182.8.148 1.094-.347 1.094-.77 0-.381-.015-1.642-.022-2.979-4.452.968-5.391-1.888-5.391-1.888-.728-1.849-1.776-2.341-1.776-2.341-1.452-.993.11-.973.11-.973 1.606.113 2.452 1.649 2.452 1.649 1.427 2.446 3.743 1.739 4.656 1.33.143-1.034.558-1.74 1.016-2.14-3.554-.404-7.29-1.777-7.29-7.907 0-1.747.625-3.174 1.649-4.295-.166-.403-.714-2.03.155-4.234 0 0 1.344-.43 4.401 1.64a15.353 15.353 0 0 1 4.005-.539c1.359.006 2.729.184 4.008.539 3.054-2.07 4.395-1.64 4.395-1.64.871 2.204.323 3.831.157 4.234 1.026 1.12 1.647 2.548 1.647 4.295 0 6.145-3.743 7.498-7.306 7.895.574.497 1.085 1.47 1.085 2.963 0 2.141-.019 3.864-.019 4.391 0 .426.288.925 1.099.768C27.421 29.457 32 23.462 32 16.395c0-8.837-7.164-16-16-16z"/></symbol></defs></svg>