<svg width="107" height="41" viewBox="0 0 107 41" fill="none" xmlns="http://www.w3.org/2000/svg">
<g filter="url(#filter0_d_517_13)">
<path d="M85.5 0L88.3064 7.9463H97.3882L90.0409 12.8574L92.8473 20.8037L85.5 15.8926L78.1527 20.8037L80.9591 12.8574L73.6118 7.9463H82.6936L85.5 0Z" fill="#F9FAB9"/>
</g>
<g filter="url(#filter1_d_517_13)">
<path d="M18.5 12L21.3064 19.9463H30.3882L23.0409 24.8574L25.8473 32.8037L18.5 27.8926L11.1527 32.8037L13.9591 24.8574L6.61179 19.9463H15.6936L18.5 12Z" fill="#F9FAB9"/>
</g>
<path d="M4.07 24.058C2.94067 24.058 2.10467 23.6547 1.562 22.848C1.06333 22.1293 0.814 21.1907 0.814 20.032C0.814 18.8587 0.99 17.942 1.342 17.282C1.386 17.2087 1.408 17.1573 1.408 17.128C1.408 17.0547 1.26133 16.996 0.968 16.952C0.674667 16.8787 0.528 16.798 0.528 16.71C0.528 16.5633 0.645333 16.424 0.88 16.292C1.12933 16.16 1.33467 16.094 1.496 16.094C1.55467 16.094 1.63533 16.1013 1.738 16.116C1.85533 16.1307 1.936 16.138 1.98 16.138C2.34667 16.138 2.882 16.116 3.586 16.072C4.31933 16.028 4.862 16.006 5.214 16.006C5.94733 16.006 6.47533 16.05 6.798 16.138C7.414 16.314 7.722 16.6733 7.722 17.216C7.722 17.6267 7.47267 17.9713 6.974 18.25C6.91533 18.25 6.886 18.2353 6.886 18.206C6.886 18.162 6.96667 18.0447 7.128 17.854C7.28933 17.6487 7.37 17.5313 7.37 17.502C7.37 16.974 6.56333 16.71 4.95 16.71C4.83267 16.71 4.686 16.7173 4.51 16.732C4.334 16.732 4.12133 16.7393 3.872 16.754C3.63733 16.7687 3.432 16.776 3.256 16.776C3.08 16.776 2.93333 16.776 2.816 16.776C2.71333 16.776 2.61067 16.776 2.508 16.776C2.42 16.776 2.33933 16.7687 2.266 16.754C2.28067 16.7687 2.288 16.8127 2.288 16.886C2.288 16.974 2.244 17.1207 2.156 17.326C1.584 18.4847 1.298 19.5847 1.298 20.626C1.298 21.506 1.54733 22.2393 2.046 22.826C2.574 23.4567 3.27067 23.772 4.136 23.772C5.72 23.772 7.34067 22.5693 8.998 20.164C9.95133 18.756 10.8387 17.172 11.66 15.412C12.4813 13.6373 13.2293 11.6867 13.904 9.56C14.212 8.636 14.366 8.09333 14.366 7.932C14.366 7.91733 14.3587 7.91 14.344 7.91C14.1093 7.91 13.4273 8.24 12.298 8.9C12.0193 10.3227 11.5133 12.0607 10.78 14.114C10.9853 13.9967 11.1393 13.938 11.242 13.938C11.3593 13.938 11.418 14.0113 11.418 14.158C11.418 14.5833 10.9487 15.2213 10.01 16.072C9.71667 16.7467 9.38667 17.4067 9.02 18.052C8.668 18.6827 8.27933 19.3133 7.854 19.944C6.65133 21.748 5.62467 22.65 4.774 22.65C4.45133 22.65 4.29 22.562 4.29 22.386C4.29 22.3127 4.334 22.276 4.422 22.276C4.466 22.276 4.52467 22.2833 4.598 22.298C4.686 22.3127 4.752 22.32 4.796 22.32C5.64667 22.32 6.644 21.4547 7.788 19.724C8.58 18.5213 9.24733 17.2527 9.79 15.918C9.59933 15.258 9.504 14.7447 9.504 14.378C9.504 13.8353 9.60667 13.564 9.812 13.564C10.032 13.564 10.23 13.7987 10.406 14.268C10.6553 13.784 10.912 13.1167 11.176 12.266C11.44 11.4007 11.704 10.3447 11.968 9.098C11.5867 9.33267 11.242 9.56733 10.934 9.802C10.6407 10.022 10.384 10.242 10.164 10.462C9.79733 10.8287 9.44533 11.32 9.108 11.936C8.712 12.64 8.514 13.19 8.514 13.586C8.514 13.8793 8.63133 14.092 8.866 14.224C8.93933 14.268 8.976 14.3047 8.976 14.334C8.976 14.3633 8.93933 14.378 8.866 14.378C8.58733 14.378 8.34533 14.268 8.14 14.048C7.94933 13.8133 7.854 13.5567 7.854 13.278C7.854 12.5153 8.382 11.628 9.438 10.616C9.81933 10.2493 10.2227 9.90467 10.648 9.582C11.088 9.24467 11.5573 8.92933 12.056 8.636L12.32 6.92C12.3347 6.75867 12.3787 6.64133 12.452 6.568C12.5107 6.612 12.54 6.788 12.54 7.096C12.54 7.272 12.5253 7.47 12.496 7.69C12.4813 7.91 12.4447 8.15933 12.386 8.438C13.5593 7.778 14.432 7.448 15.004 7.448C15.268 7.448 15.4 7.56533 15.4 7.8C15.4 8.29867 15.224 9.17867 14.872 10.44C13.596 14.796 11.7993 18.3307 9.482 21.044C7.73667 23.0533 5.93267 24.058 4.07 24.058ZM15.6214 21.066C15.5187 21.066 15.3867 21.022 15.2254 20.934C15.064 20.8313 14.9834 20.736 14.9834 20.648L15.2474 20.054C15.4967 19.482 15.7314 18.9247 15.9514 18.382C16.186 17.8247 16.3767 17.2673 16.5234 16.71C16.67 16.2113 16.7434 15.5953 16.7434 14.862C16.6994 15.0087 16.604 15.2213 16.4574 15.5C16.3107 15.7787 16.1127 16.1307 15.8634 16.556C15.6287 16.9667 15.416 17.3113 15.2254 17.59C15.0494 17.854 14.9027 18.0667 14.7854 18.228C14.7854 18.2427 14.7707 18.25 14.7414 18.25C14.668 18.25 14.6314 18.2207 14.6314 18.162C14.6314 18.1327 14.6387 18.1107 14.6534 18.096L15.3354 17.018C15.7314 16.3873 16.0467 15.8153 16.2814 15.302C16.516 14.774 16.6847 14.312 16.7874 13.916C16.8754 13.5347 17.022 13.344 17.2274 13.344C17.462 13.344 17.5794 13.6373 17.5794 14.224C17.5794 15.28 17.242 16.578 16.5674 18.118C17.3594 17.1207 17.9094 16.4607 18.2174 16.138C19.0534 15.2433 19.706 14.796 20.1754 14.796C20.6447 14.796 20.8794 15.104 20.8794 15.72C20.8794 16.1453 20.762 16.5193 20.5274 16.842C20.2487 17.2527 19.992 17.458 19.7574 17.458C19.7134 17.458 19.6914 17.4287 19.6914 17.37C19.6914 17.37 19.772 17.1867 19.9334 16.82C20.0947 16.4533 20.1754 16.138 20.1754 15.874C20.1754 15.478 20.0507 15.28 19.8014 15.28C19.42 15.28 18.848 15.7273 18.0854 16.622C17.7627 16.9887 17.484 17.3333 17.2494 17.656C17.0147 17.964 16.824 18.2427 16.6774 18.492C16.6627 18.536 16.5894 18.712 16.4574 19.02C16.3254 19.328 16.1567 19.7827 15.9514 20.384L15.7314 21.022C15.702 21.0513 15.6654 21.066 15.6214 21.066ZM18.6639 29.756C17.8426 29.756 16.9846 29.4187 16.0899 28.744C15.1952 28.0693 14.7479 27.3653 14.7479 26.632C14.7479 26.5733 14.7699 26.544 14.8139 26.544C14.8726 26.544 14.9092 26.588 14.9239 26.676C15.5399 28.216 16.6546 28.986 18.2679 28.986C19.0892 28.986 19.8519 28.788 20.5559 28.392C21.9199 27.6293 22.9832 26.434 23.7459 24.806C23.9806 24.2927 24.2079 23.64 24.4279 22.848C24.6626 22.0707 24.8826 21.154 25.0879 20.098C25.1759 19.6287 25.2859 19.042 25.4179 18.338C25.5499 17.634 25.7406 16.82 25.9899 15.896L26.3639 14.532C25.4399 15.2507 24.3326 17.3113 23.0419 20.714C23.0419 20.7433 23.0126 20.758 22.9539 20.758C22.8512 20.758 22.7412 20.7067 22.6239 20.604C22.5066 20.5013 22.4479 20.3913 22.4479 20.274C22.4479 20.274 22.5066 20.12 22.6239 19.812C22.7559 19.5187 22.8219 19.3647 22.8219 19.35C23.1006 18.5287 23.2399 17.326 23.2399 15.742C23.2399 14.5393 22.9832 13.938 22.4699 13.938C22.1912 13.938 21.8466 14.1287 21.4359 14.51C21.0546 14.8767 20.8492 15.06 20.8199 15.06C20.7759 15.06 20.7539 15.0307 20.7539 14.972C20.7539 14.9573 20.7686 14.906 20.7979 14.818C21.0032 14.4953 21.3332 14.1727 21.7879 13.85C22.2719 13.498 22.6752 13.322 22.9979 13.322C23.6139 13.322 23.9219 13.916 23.9219 15.104C23.9219 16.072 23.7239 17.1427 23.3279 18.316C24.5452 16.072 25.5792 14.73 26.4299 14.29C26.6499 13.498 26.8992 12.9407 27.1779 12.618C27.5446 12.1633 28.0872 11.936 28.8059 11.936C29.0699 11.936 29.2019 11.98 29.2019 12.068C29.2019 12.112 29.1652 12.1487 29.0919 12.178C28.9012 12.222 28.7326 12.2807 28.5859 12.354C27.9112 12.838 27.3392 14.092 26.8699 16.116C26.5179 17.5973 26.2466 18.7413 26.0559 19.548C25.8652 20.34 25.7552 20.7947 25.7259 20.912C25.1832 22.8773 24.5672 24.4907 23.8779 25.752C22.9832 27.3507 21.8832 28.5167 20.5779 29.25C19.9766 29.5873 19.3386 29.756 18.6639 29.756ZM28.274 21.242C28.142 21.242 28.076 21.1467 28.076 20.956V20.912C28.1346 20.7067 28.1933 20.45 28.252 20.142C28.3253 19.834 28.406 19.4747 28.494 19.064C28.582 18.6533 28.692 18.14 28.824 17.524C28.956 16.8933 29.1173 16.1673 29.308 15.346L29.044 14.708C28.9706 14.5173 28.912 14.378 28.868 14.29C28.8386 14.202 28.824 14.158 28.824 14.158C28.824 14.0553 28.9486 13.96 29.198 13.872C29.9313 13.5933 30.4006 13.454 30.606 13.454C30.826 13.454 30.936 13.52 30.936 13.652C30.9213 13.608 30.5473 14.5467 29.814 16.468V16.666C29.814 17.0767 29.748 17.282 29.616 17.282C29.6013 17.282 29.5793 17.26 29.55 17.216C29.4326 17.5827 29.3153 17.9347 29.198 18.272C29.0953 18.5947 29 18.9173 28.912 19.24C29.2346 18.712 29.5646 18.206 29.902 17.722C30.254 17.238 30.6133 16.7833 30.98 16.358C32.08 15.082 32.9893 14.444 33.708 14.444C34.0453 14.444 34.214 14.576 34.214 14.84C34.214 14.928 34.192 15.038 34.148 15.17C34.0306 15.6687 33.8693 16.2993 33.664 17.062C33.4586 17.81 33.2166 18.6827 32.938 19.68C33.7886 19.0493 34.4486 18.3747 34.918 17.656C34.9913 17.568 35.0426 17.524 35.072 17.524C35.116 17.524 35.138 17.5533 35.138 17.612C35.138 17.6413 35.116 17.6927 35.072 17.766C34.4266 18.91 33.642 19.8193 32.718 20.494C32.6593 20.582 32.564 20.626 32.432 20.626C32.3293 20.626 32.278 20.5673 32.278 20.45C32.278 20.4207 32.3 20.2887 32.344 20.054C32.388 19.8047 32.4466 19.46 32.52 19.02C32.5933 18.6973 32.6593 18.382 32.718 18.074C32.7766 17.766 32.8353 17.4507 32.894 17.128C32.9966 16.4093 33.0626 15.7787 33.092 15.236C32.7693 15.3827 32.4173 15.6247 32.036 15.962C31.6693 16.2847 31.2586 16.6953 30.804 17.194C30.3933 17.6487 30.034 18.0813 29.726 18.492C29.4326 18.888 29.1906 19.262 29 19.614C28.7946 20.01 28.6406 20.4353 28.538 20.89C28.4793 21.1247 28.3913 21.242 28.274 21.242ZM29.44 14.752L29.638 14.026C29.5646 14.0847 29.4253 14.158 29.22 14.246L29.44 14.752ZM39.0338 21.088C38.6378 21.088 38.3298 20.8827 38.1098 20.472C37.9338 20.1347 37.8458 19.746 37.8458 19.306C37.8458 19.086 37.8605 18.844 37.8898 18.58C37.9338 18.3013 37.9925 18.0007 38.0658 17.678C37.1418 19.7313 36.1885 20.758 35.2058 20.758C34.6045 20.758 34.3038 20.3693 34.3038 19.592C34.3038 18.3453 34.9052 17.0547 36.1078 15.72C37.3252 14.356 38.5352 13.674 39.7378 13.674C40.3098 13.674 40.5958 13.9233 40.5958 14.422C40.5958 15.038 40.1852 15.654 39.3638 16.27C38.9385 17.326 38.7258 18.4113 38.7258 19.526C38.7258 20.362 38.9092 20.78 39.2758 20.78C39.7892 20.78 40.6692 19.856 41.9158 18.008C42.0038 17.8907 42.0698 17.832 42.1138 17.832C42.1578 17.832 42.1798 17.8613 42.1798 17.92C42.1798 17.9933 42.1505 18.0667 42.0918 18.14C40.7718 20.1053 39.7525 21.088 39.0338 21.088ZM35.2938 20.076C36.2178 20.076 37.1125 19.0493 37.9778 16.996C37.8605 17.0253 37.7505 17.0547 37.6478 17.084C37.5598 17.0987 37.4792 17.106 37.4058 17.106C37.3472 17.106 37.3178 17.084 37.3178 17.04C37.3178 16.9667 37.4205 16.8933 37.6258 16.82L38.3078 16.424C38.3372 16.1747 38.4912 15.852 38.7698 15.456C39.0485 15.0453 39.3125 14.84 39.5618 14.84C39.6498 14.84 39.6938 14.906 39.6938 15.038C39.6938 15.1407 39.6572 15.302 39.5838 15.522C39.8185 15.1993 39.9358 14.884 39.9358 14.576C39.9358 14.2387 39.7818 14.07 39.4738 14.07C38.7405 14.07 37.7798 14.796 36.5918 16.248C35.4038 17.6707 34.8098 18.778 34.8098 19.57C34.8098 19.9073 34.9712 20.076 35.2938 20.076ZM48.7004 23.354C48.1431 23.354 47.5931 23.1633 47.0504 22.782C46.4638 22.3713 46.1704 21.8873 46.1704 21.33C46.1704 20.6407 46.5298 20.12 47.2484 19.768C47.7911 19.4893 48.4511 19.35 49.2284 19.35C49.6391 19.35 50.0718 19.3867 50.5264 19.46C50.9811 19.5333 51.4651 19.6433 51.9784 19.79C53.0491 18.4993 53.9878 16.8713 54.7944 14.906C54.6918 14.5687 54.6111 14.2753 54.5524 14.026C54.5084 13.762 54.4864 13.5347 54.4864 13.344C54.4864 12.816 54.5891 12.552 54.7944 12.552C55.0291 12.552 55.2344 12.7867 55.4104 13.256C55.9384 12.2147 56.4664 10.418 56.9944 7.866C53.9438 7.96867 51.6044 8.856 49.9764 10.528C49.3898 11.1147 49.0964 11.782 49.0964 12.53C49.0964 13.1167 49.2944 13.652 49.6904 14.136C50.0424 14.576 50.5118 14.9133 51.0984 15.148C51.1864 15.1773 51.3038 15.214 51.4504 15.258C51.5971 15.302 51.7658 15.346 51.9564 15.39C52.0444 15.4047 52.0884 15.434 52.0884 15.478C52.0884 15.5513 52.0371 15.588 51.9344 15.588L51.8684 15.566C50.9591 15.4927 50.1084 15.1187 49.3164 14.444C48.4511 13.7107 48.0184 12.904 48.0184 12.024C48.0184 11.364 48.2898 10.7627 48.8324 10.22C49.7564 9.26667 51.0398 8.56267 52.6824 8.108C54.0464 7.712 55.5131 7.514 57.0824 7.514C57.1118 7.206 57.1558 6.89067 57.2144 6.568C57.2878 6.23067 57.3684 5.89333 57.4564 5.556C57.5151 5.57067 57.5444 5.73933 57.5444 6.062C57.5444 6.25267 57.5298 6.47267 57.5004 6.722C57.4711 6.95667 57.4271 7.22067 57.3684 7.514C57.9258 7.52867 58.4684 7.56533 58.9964 7.624C59.5391 7.668 60.0598 7.74867 60.5584 7.866C61.4531 7.04467 62.3624 6.634 63.2864 6.634C63.8291 6.634 64.2838 6.82467 64.6504 7.206C65.0171 7.58733 65.2004 8.04933 65.2004 8.592C65.2004 8.79733 65.1638 8.9 65.0904 8.9C65.0318 8.9 64.9804 8.69467 64.9364 8.284C64.8484 7.624 64.3718 7.294 63.5064 7.294C62.9198 7.294 62.2818 7.57267 61.5924 8.13C62.5018 8.40867 63.2791 8.80467 63.9244 9.318C64.7311 9.94867 65.1344 10.6747 65.1344 11.496C65.1344 12.4933 64.5624 13.278 63.4184 13.85C62.5384 14.3047 61.5411 14.5613 60.4264 14.62C63.4624 16.028 64.9804 17.6927 64.9804 19.614C64.9804 20.5233 64.5991 21.286 63.8364 21.902C63.0884 22.518 62.2451 22.826 61.3064 22.826C59.8984 22.826 58.6518 22.65 57.5664 22.298L54.0904 20.868C53.6798 21.352 53.2764 21.7553 52.8804 22.078C52.4991 22.4153 52.1178 22.6647 51.7364 22.826C50.9884 23.178 49.9764 23.354 48.7004 23.354ZM53.4304 20.274C54.0318 19.614 54.7138 18.47 55.4764 16.842C55.8284 16.0793 56.1804 15.324 56.5324 14.576C56.8844 13.8133 57.2438 13.0507 57.6104 12.288C58.0798 11.3493 58.5344 10.5353 58.9744 9.846C59.4291 9.15667 59.8691 8.58467 60.2944 8.13C59.3558 7.954 58.4171 7.866 57.4784 7.866H57.3024C56.9944 9.28867 56.4884 11.0267 55.7844 13.08C55.9898 12.9627 56.1438 12.904 56.2464 12.904C56.3638 12.904 56.4224 12.9773 56.4224 13.124C56.4224 13.5347 55.9458 14.18 54.9924 15.06C54.5818 15.9987 54.1418 16.8713 53.6724 17.678C53.2178 18.47 52.7191 19.196 52.1764 19.856C52.3818 19.9147 52.5871 19.9807 52.7924 20.054C53.0124 20.1273 53.2251 20.2007 53.4304 20.274ZM61.1524 22.364C63.1324 22.364 64.1224 21.6893 64.1224 20.34C64.1224 18.536 62.8978 17.04 60.4484 15.852C60.3018 15.7933 60.1184 15.72 59.8984 15.632C59.6784 15.5293 59.4218 15.412 59.1284 15.28C59.0844 15.2507 59.0624 15.1773 59.0624 15.06C59.0624 14.6493 59.2751 14.4 59.7004 14.312H60.1404C60.2724 14.2973 60.4044 14.2827 60.5364 14.268C60.6684 14.2533 60.7931 14.2387 60.9104 14.224C61.7758 14.0627 62.4798 13.7693 63.0224 13.344C63.6971 12.8453 64.0344 12.2 64.0344 11.408C64.0344 10.6893 63.7484 10.044 63.1764 9.472C62.6778 9.00267 62.0544 8.64333 61.3064 8.394C60.4264 9.20067 59.5831 10.4253 58.7764 12.068L56.7304 16.556C55.9238 18.3013 55.1318 19.636 54.3544 20.56L57.6764 21.748C58.9231 22.1587 60.0818 22.364 61.1524 22.364ZM48.8544 22.848C49.6171 22.848 50.4311 22.6207 51.2964 22.166C52.1911 21.7113 52.8364 21.1833 53.2324 20.582C53.0418 20.4793 52.8438 20.384 52.6384 20.296C52.4478 20.208 52.2351 20.1273 52.0004 20.054C51.1351 21.0953 50.3871 21.616 49.7564 21.616C49.4484 21.616 49.2944 21.528 49.2944 21.352C49.2944 21.2787 49.3384 21.242 49.4264 21.242C49.4558 21.242 49.5144 21.2493 49.6024 21.264C49.6904 21.2933 49.7564 21.308 49.8004 21.308C50.3578 21.308 51.0251 20.8753 51.8024 20.01C50.8638 19.702 49.9691 19.548 49.1184 19.548C48.5171 19.548 47.9744 19.6507 47.4904 19.856C46.8744 20.12 46.5664 20.5307 46.5664 21.088C46.5664 21.616 46.8231 22.0487 47.3364 22.386C47.8058 22.694 48.3118 22.848 48.8544 22.848ZM69.0539 13.366C68.7605 13.366 68.6139 13.212 68.6139 12.904C68.6139 12.7573 68.7019 12.5813 68.8779 12.376C69.0685 12.156 69.2372 12.0093 69.3839 11.936C69.9119 11.6867 70.2272 11.562 70.3299 11.562C70.3739 11.562 70.3959 11.5767 70.3959 11.606C70.3959 11.65 70.2272 11.8627 69.8899 12.244C69.8605 12.2733 69.7505 12.5007 69.5599 12.926C69.3985 13.2193 69.2299 13.366 69.0539 13.366ZM67.7339 20.428C66.9859 20.428 66.6119 20.054 66.6119 19.306C66.6119 18.7487 66.7585 18.0447 67.0519 17.194L66.6559 17.81C66.4652 18.1327 66.3332 18.294 66.2599 18.294C66.2305 18.294 66.2159 18.272 66.2159 18.228C66.2159 18.1107 66.2599 18.0007 66.3479 17.898C66.6999 17.414 67.0885 16.7173 67.5139 15.808C67.5579 15.6907 67.6165 15.544 67.6899 15.368C67.7779 15.192 67.8805 14.994 67.9979 14.774C68.0712 14.642 68.2545 14.576 68.5479 14.576C68.7972 14.576 68.9219 14.6493 68.9219 14.796C68.9219 14.9573 68.8485 15.1773 68.7019 15.456C68.5699 15.7493 68.4452 15.918 68.3279 15.962C67.5652 17.4873 67.1839 18.6093 67.1839 19.328C67.1839 19.812 67.3452 20.054 67.6679 20.054C68.1959 20.054 68.7752 19.6727 69.4059 18.91C70.0659 18.1473 70.3885 17.766 70.3739 17.766C70.4032 17.766 70.4179 17.788 70.4179 17.832C70.4179 17.8467 70.4032 17.898 70.3739 17.986C70.2419 18.2207 70.0732 18.4627 69.8679 18.712C69.6772 18.9467 69.4572 19.196 69.2079 19.46C68.5625 20.1053 68.0712 20.428 67.7339 20.428ZM66.5641 30.768C63.8508 30.768 62.4941 29.954 62.4941 28.326C62.4941 28.2233 62.5014 28.1207 62.5161 28.018C62.5161 27.93 62.5234 27.8347 62.5381 27.732C62.6554 27.1747 63.0514 26.5 63.7261 25.708C65.9848 23.068 69.3068 21.6967 73.6921 21.594L72.9661 19.768C72.2474 20.384 71.5948 20.692 71.0081 20.692C70.4801 20.692 70.2161 20.406 70.2161 19.834C70.2161 18.7633 70.8174 17.5753 72.0201 16.27C72.0054 16.138 71.9908 16.0133 71.9761 15.896C71.9761 15.764 71.9761 15.6393 71.9761 15.522C71.9761 14.6273 72.1448 13.8573 72.4821 13.212C72.9074 12.3907 73.5234 11.98 74.3301 11.98C74.4181 11.98 74.4988 11.9873 74.5721 12.002C74.6601 12.002 74.7408 12.0093 74.8141 12.024C75.1514 12.0973 75.4081 12.3687 75.5841 12.838C75.7454 13.278 75.8041 13.674 75.7601 14.026C76.6401 13.498 77.0801 12.86 77.0801 12.112C77.0801 11.848 77.1094 11.716 77.1681 11.716C77.3148 11.716 77.3881 11.9727 77.3881 12.486C77.3881 13.4687 76.8308 14.224 75.7161 14.752C75.6281 15.5147 75.3568 16.3507 74.9021 17.26C74.4181 18.2427 73.9048 18.954 73.3621 19.394C73.5088 19.6287 73.6774 19.9293 73.8681 20.296C74.0734 20.6627 74.3081 21.0953 74.5721 21.594C75.7454 21.6087 76.6474 21.6747 77.2781 21.792C77.5128 21.836 77.6301 21.8947 77.6301 21.968C77.6301 22.0707 77.5128 22.122 77.2781 22.122C77.1461 22.122 76.9774 22.1147 76.7721 22.1C76.5668 22.0853 76.3248 22.0633 76.0461 22.034C75.5034 21.99 75.0781 21.968 74.7701 21.968C75.2688 22.9653 75.5181 23.8307 75.5181 24.564C75.5181 26.3093 74.4181 27.82 72.2181 29.096C70.3114 30.2107 68.4268 30.768 66.5641 30.768ZM72.3501 16.028C72.4968 15.8813 72.6654 15.7347 72.8561 15.588C73.0614 15.4413 73.2888 15.2947 73.5381 15.148L74.8361 14.4C74.8508 14.2827 74.8581 14.1653 74.8581 14.048C74.8728 13.9307 74.8801 13.8207 74.8801 13.718C74.8801 12.8527 74.6748 12.42 74.2641 12.42C73.9121 12.42 73.5528 12.6913 73.1861 13.234C72.8928 13.6593 72.6728 14.092 72.5261 14.532C72.3941 14.9573 72.3281 15.3753 72.3281 15.786C72.3281 15.9033 72.3354 15.984 72.3501 16.028ZM73.1861 19.02C73.5381 18.6973 73.8974 18.074 74.2641 17.15C74.6014 16.2553 74.7701 15.5513 74.7701 15.038C73.6994 15.5367 72.9001 16.028 72.3721 16.512C72.4308 16.8933 72.5261 17.2967 72.6581 17.722C72.8048 18.1327 72.9808 18.5653 73.1861 19.02ZM71.2501 19.944C71.7928 19.944 72.3134 19.746 72.8121 19.35C72.5628 18.734 72.4088 18.3307 72.3501 18.14C72.2768 17.8907 72.2181 17.6633 72.1741 17.458C72.1301 17.2527 72.0934 17.0547 72.0641 16.864C71.2428 17.9493 70.8321 18.7633 70.8321 19.306C70.8321 19.7313 70.9714 19.944 71.2501 19.944ZM66.5421 30.438C68.1408 30.438 69.8274 29.8 71.6021 28.524C73.5088 27.16 74.4621 25.7153 74.4621 24.19C74.4621 23.7353 74.2568 23.002 73.8461 21.99C72.6874 22.0487 71.6021 22.1807 70.5901 22.386C69.5928 22.606 68.6614 22.8993 67.7961 23.266C65.5961 24.2047 64.1514 25.5833 63.4621 27.402C63.3594 27.6513 63.3081 27.9007 63.3081 28.15C63.3081 28.8687 63.6821 29.448 64.4301 29.888C65.0608 30.2547 65.7648 30.438 66.5421 30.438ZM82.5409 21.154C81.6902 21.154 81.2649 20.538 81.2649 19.306C81.2649 18.7047 81.3969 17.81 81.6609 16.622C81.0449 17.8247 80.5536 18.668 80.1869 19.152C79.4096 20.2373 78.6836 20.78 78.0089 20.78C77.3196 20.78 76.9749 20.3253 76.9749 19.416C76.9749 18.0227 77.7156 16.5413 79.1969 14.972C80.6782 13.4027 82.1302 12.5373 83.5529 12.376C83.8756 11.5987 84.1909 10.858 84.4989 10.154C84.8069 9.45 85.1002 8.78267 85.3789 8.152C85.4962 7.90267 85.6282 7.61667 85.7749 7.294C85.9362 6.97133 86.1122 6.612 86.3029 6.216C86.5522 5.87867 86.9482 5.71 87.4909 5.71C87.6962 5.71 87.7989 5.76133 87.7989 5.864C87.7989 5.864 87.7842 5.89333 87.7549 5.952C87.6376 6.18667 87.4762 6.48733 87.2709 6.854C87.0802 7.22067 86.8602 7.63867 86.6109 8.108C86.2149 8.87067 85.8262 9.626 85.4449 10.374C85.0782 11.1073 84.7262 11.8187 84.3889 12.508C84.5649 12.552 84.6529 12.684 84.6529 12.904C84.6529 13.1973 84.4696 13.6373 84.1029 14.224C83.7509 14.8107 83.4576 15.192 83.2229 15.368C83.0762 15.6467 82.9442 15.9693 82.8269 16.336C82.7096 16.7027 82.5922 17.0987 82.4749 17.524C82.3722 17.9493 82.2916 18.3453 82.2329 18.712C82.1889 19.0787 82.1669 19.4087 82.1669 19.702C82.1669 20.4207 82.3576 20.78 82.7389 20.78C83.1789 20.78 83.7142 20.384 84.3449 19.592C84.5502 19.3427 84.9462 18.7487 85.5329 17.81C85.6062 17.722 85.6576 17.678 85.6869 17.678C85.7309 17.678 85.7529 17.7 85.7529 17.744C85.7529 17.744 85.7382 17.788 85.7089 17.876C84.5796 20.0613 83.5236 21.154 82.5409 21.154ZM78.1189 19.966C79.1896 19.966 80.2382 18.7707 81.2649 16.38C80.9862 16.468 80.7589 16.512 80.5829 16.512C80.5242 16.512 80.4949 16.4827 80.4949 16.424C80.4949 16.336 80.5976 16.2627 80.8029 16.204C81.0082 16.1307 81.2502 15.9987 81.5289 15.808C81.5876 15.6613 81.6462 15.5 81.7049 15.324C81.7782 15.1333 81.8442 14.928 81.9029 14.708C81.9469 14.5907 81.9982 14.532 82.0569 14.532C82.1596 14.532 82.2109 14.598 82.2109 14.73C82.2109 14.862 82.1449 15.104 82.0129 15.456L82.4089 15.17L83.3329 12.882C82.2476 13.1167 81.0156 13.916 79.6369 15.28C78.2289 16.7027 77.5249 17.942 77.5249 18.998C77.5249 19.6433 77.7229 19.966 78.1189 19.966ZM89.737 21.088C89.341 21.088 89.033 20.8827 88.813 20.472C88.637 20.1347 88.549 19.746 88.549 19.306C88.549 19.086 88.5636 18.844 88.593 18.58C88.637 18.3013 88.6956 18.0007 88.769 17.678C87.845 19.7313 86.8916 20.758 85.909 20.758C85.3076 20.758 85.007 20.3693 85.007 19.592C85.007 18.3453 85.6083 17.0547 86.811 15.72C88.0283 14.356 89.2383 13.674 90.441 13.674C91.013 13.674 91.299 13.9233 91.299 14.422C91.299 15.038 90.8883 15.654 90.067 16.27C89.6416 17.326 89.429 18.4113 89.429 19.526C89.429 20.362 89.6123 20.78 89.979 20.78C90.4923 20.78 91.3723 19.856 92.619 18.008C92.707 17.8907 92.773 17.832 92.817 17.832C92.861 17.832 92.883 17.8613 92.883 17.92C92.883 17.9933 92.8536 18.0667 92.795 18.14C91.475 20.1053 90.4556 21.088 89.737 21.088ZM85.997 20.076C86.921 20.076 87.8156 19.0493 88.681 16.996C88.5636 17.0253 88.4536 17.0547 88.351 17.084C88.263 17.0987 88.1823 17.106 88.109 17.106C88.0503 17.106 88.021 17.084 88.021 17.04C88.021 16.9667 88.1236 16.8933 88.329 16.82L89.011 16.424C89.0403 16.1747 89.1943 15.852 89.473 15.456C89.7516 15.0453 90.0156 14.84 90.265 14.84C90.353 14.84 90.397 14.906 90.397 15.038C90.397 15.1407 90.3603 15.302 90.287 15.522C90.5216 15.1993 90.639 14.884 90.639 14.576C90.639 14.2387 90.485 14.07 90.177 14.07C89.4436 14.07 88.483 14.796 87.295 16.248C86.107 17.6707 85.513 18.778 85.513 19.57C85.513 19.9073 85.6743 20.076 85.997 20.076ZM95.1292 21.044C94.4399 21.044 93.8165 20.758 93.2592 20.186C92.7165 19.5993 92.4452 18.9613 92.4452 18.272C92.4452 17.8173 92.5625 17.59 92.7972 17.59C92.9439 17.59 93.0905 17.7 93.2372 17.92C93.6772 16.8933 94.3005 15.7347 95.1072 14.444C95.6205 13.652 96.2219 13.256 96.9112 13.256C97.0579 13.256 97.2265 13.3073 97.4172 13.41C97.6225 13.5127 97.7252 13.6373 97.7252 13.784C97.7252 13.8867 97.6299 13.938 97.4392 13.938C97.4245 13.938 97.4025 13.938 97.3732 13.938C97.3439 13.938 97.3072 13.9307 97.2632 13.916H97.0872C96.7645 13.916 96.4785 14.0113 96.2292 14.202C95.9799 14.3927 95.8552 14.6493 95.8552 14.972C95.8552 15.0893 95.8772 15.214 95.9212 15.346L96.4492 17.106C96.5665 17.458 96.6472 17.788 96.6912 18.096C96.7352 18.3893 96.7572 18.6607 96.7572 18.91C97.1532 18.8513 97.4905 18.7047 97.7692 18.47C97.9452 18.3233 98.1799 18.03 98.4732 17.59C98.5172 17.5313 98.5612 17.502 98.6052 17.502C98.6492 17.502 98.6712 17.5313 98.6712 17.59C98.6712 17.6047 98.6565 17.656 98.6272 17.744C98.1285 18.58 97.5125 19.0713 96.7792 19.218C96.7352 19.7313 96.5812 20.1567 96.3172 20.494C96.0385 20.8607 95.6425 21.044 95.1292 21.044ZM95.8552 19.196C95.8699 19.1373 95.8772 19.086 95.8772 19.042C95.8772 18.998 95.8772 18.9467 95.8772 18.888C95.8772 18.6973 95.8405 18.4407 95.7672 18.118C95.7085 17.7807 95.6205 17.37 95.5032 16.886C95.2832 15.962 95.2025 15.346 95.2612 15.038C94.8799 15.434 94.2565 16.49 93.3912 18.206C93.6699 18.3527 93.9045 18.4847 94.0952 18.602C94.3005 18.7047 94.4619 18.7853 94.5792 18.844C94.8139 18.9467 95.0339 19.0273 95.2392 19.086C95.4592 19.1447 95.6645 19.1813 95.8552 19.196ZM94.6672 20.318C95.2539 20.318 95.6425 20.032 95.8332 19.46C94.6599 19.46 93.7652 19.218 93.1492 18.734C93.1785 19.0567 93.3545 19.4087 93.6772 19.79C94.0145 20.142 94.3445 20.318 94.6672 20.318ZM98.4271 21.682C98.2511 21.682 98.1778 21.6233 98.2071 21.506C98.1631 21.418 98.0605 21.2273 97.8991 20.934C97.7231 20.6847 97.6351 20.5307 97.6351 20.472C97.6351 20.3547 97.6865 20.2887 97.7891 20.274C97.9358 20.186 98.0898 20.076 98.2511 19.944C98.4125 19.812 98.5885 19.6653 98.7791 19.504C99.7031 16.8053 101.236 13.102 103.377 8.394C103.436 8.24733 103.509 8.07133 103.597 7.866C103.7 7.66067 103.817 7.41867 103.949 7.14C104.154 6.80267 104.543 6.634 105.115 6.634C105.335 6.634 105.445 6.68533 105.445 6.788C105.445 6.81733 105.43 6.84667 105.401 6.876L104.125 9.274C103.113 11.1807 102.255 12.8967 101.551 14.422C100.847 15.9473 100.29 17.2893 99.8791 18.448C100.7 17.6267 101.375 16.8933 101.903 16.248C102.446 15.588 102.856 15.0087 103.135 14.51C103.164 14.4367 103.216 14.334 103.289 14.202C103.377 14.0553 103.524 13.982 103.729 13.982C103.905 13.982 103.993 14.0407 103.993 14.158C103.993 14.2313 103.978 14.334 103.949 14.466C103.934 14.598 103.912 14.7667 103.883 14.972C103.854 15.1627 103.832 15.3313 103.817 15.478C103.802 15.61 103.795 15.7273 103.795 15.83C103.795 16.7247 103.927 17.6267 104.191 18.536C104.572 19.7973 105.093 20.428 105.753 20.428C105.885 20.428 106.032 20.3913 106.193 20.318C106.354 20.2447 106.457 20.208 106.501 20.208C106.618 20.208 106.677 20.2667 106.677 20.384C106.677 20.5307 106.53 20.6627 106.237 20.78C105.929 20.8973 105.694 20.956 105.533 20.956C104.8 20.956 104.132 20.362 103.531 19.174C103.018 18.1033 102.761 17.106 102.761 16.182C102.761 16.1087 102.761 16.0427 102.761 15.984C102.761 15.9253 102.768 15.8667 102.783 15.808C102.519 16.1893 102.123 16.6587 101.595 17.216C101.067 17.7733 100.414 18.4187 99.6371 19.152C99.5638 19.4013 99.4905 19.6433 99.4171 19.878C99.3585 20.1127 99.3071 20.3327 99.2631 20.538L99.1531 21.088C99.0651 21.484 98.8231 21.682 98.4271 21.682ZM98.3171 21C98.3465 20.8827 98.3758 20.7507 98.4051 20.604C98.4491 20.4573 98.5005 20.3107 98.5591 20.164L98.0971 20.538C98.1705 20.6407 98.2438 20.7947 98.3171 21Z" fill="#9600DC"/>
<defs>
<filter id="filter0_d_517_13" x="69.6118" y="0" width="31.7764" height="28.8037" filterUnits="userSpaceOnUse" color-interpolation-filters="sRGB">
<feFlood flood-opacity="0" result="BackgroundImageFix"/>
<feColorMatrix in="SourceAlpha" type="matrix" values="0 0 0 0 0 0 0 0 0 0 0 0 0 0 0 0 0 0 127 0" result="hardAlpha"/>
<feOffset dy="4"/>
<feGaussianBlur stdDeviation="2"/>
<feComposite in2="hardAlpha" operator="out"/>
<feColorMatrix type="matrix" values="0 0 0 0 0 0 0 0 0 0 0 0 0 0 0 0 0 0 0.25 0"/>
<feBlend mode="normal" in2="BackgroundImageFix" result="effect1_dropShadow_517_13"/>
<feBlend mode="normal" in="SourceGraphic" in2="effect1_dropShadow_517_13" result="shape"/>
</filter>
<filter id="filter1_d_517_13" x="2.61182" y="12" width="31.7764" height="28.8037" filterUnits="userSpaceOnUse" color-interpolation-filters="sRGB">
<feFlood flood-opacity="0" result="BackgroundImageFix"/>
<feColorMatrix in="SourceAlpha" type="matrix" values="0 0 0 0 0 0 0 0 0 0 0 0 0 0 0 0 0 0 127 0" result="hardAlpha"/>
<feOffset dy="4"/>
<feGaussianBlur stdDeviation="2"/>
<feComposite in2="hardAlpha" operator="out"/>
<feColorMatrix type="matrix" values="0 0 0 0 0 0 0 0 0 0 0 0 0 0 0 0 0 0 0.25 0"/>
<feBlend mode="normal" in2="BackgroundImageFix" result="effect1_dropShadow_517_13"/>
<feBlend mode="normal" in="SourceGraphic" in2="effect1_dropShadow_517_13" result="shape"/>
</filter>
</defs>
</svg>
