<?xml version="1.0" encoding="iso-8859-1"?>
<!-- Uploaded to: SVG Repo, www.svgrepo.com, Generator: SVG Repo Mixer Tools -->
<svg fill="#AFB1B8" version="1.1" id="Layer_1" xmlns="http://www.w3.org/2000/svg" xmlns:xlink="http://www.w3.org/1999/xlink" 
	 viewBox="0 0 512 512" xml:space="preserve">
<g>
	<g>
		<path d="M384.013,44.029H127.989C57.415,44.029,0,101.444,0,172.016v167.966c0,70.573,57.415,127.988,127.989,127.988H512V172.016
			C512,101.444,454.585,44.029,384.013,44.029z M496.326,452.297L496.326,452.297H127.989c-61.93,0-112.313-50.384-112.313-112.313
			V172.016c0-61.929,50.383-112.313,112.313-112.313h256.024c61.929,0,112.313,50.383,112.313,112.313V452.297z"/>
	</g>
</g>
<g>
	<g>
		<path d="M64.042,116.076v279.849h391.922V116.076H64.042z M440.289,380.249H79.718V131.752h360.572V380.249z"/>
	</g>
</g>
<g>
	<g>
		<path d="M88.058,140.092v231.817h343.891V140.092H88.058z M103.733,155.767h312.539v110.334l-40.086-40.573l-48.2,47.853
			l-29.431-28.299l-20.548,20.888c-11.601-18.321-32.055-29.814-54.028-29.814c-35.221,0-63.875,28.654-63.875,63.874
			c0,5.492,0.703,10.857,2.053,16.06h-58.424V155.767z M266.619,277.545L228.7,316.09h-50.176
			c-1.816-5.13-2.744-10.511-2.744-16.061c0-26.577,21.623-48.199,48.2-48.199C241.811,251.83,258.321,261.859,266.619,277.545z
			 M416.273,316.089H280.036v15.675h136.237v24.469H103.733v-24.469h131.535l63.593-64.643l29.3,28.174l47.918-47.573l40.194,40.681
			V316.089z"/>
	</g>
</g>
<g>
	<g>
		<polygon points="120.147,171.875 120.147,204.271 135.822,204.271 135.822,187.551 247.64,187.551 247.64,171.875 		"/>
	</g>
</g>
<g>
	<g>
		<rect x="264.36" y="171.875" width="24.036" height="15.675"/>
	</g>
</g>
</svg>