<svg width="108" height="108" viewBox="0 0 108 108" fill="none" xmlns="http://www.w3.org/2000/svg">
<g id="Ellipse">
<g id="Ellipse_2">
<path d="M108 54C108 68.9117 101.956 82.4117 92.1838 92.1838C82.4117 101.956 68.9117 108 54 108C39.0883 108 25.5883 101.956 15.8162 92.1838C6.04416 82.4117 0 68.9117 0 54C0 39.0883 6.04416 25.5883 15.8162 15.8162C25.5883 6.04416 39.0883 0 54 0C68.9117 0 82.4117 6.04416 92.1838 15.8162C101.956 25.5883 108 39.0883 108 54Z" fill="#E5E5E5"/>
<path d="M92.1821 91.475L54.7071 54L92.1821 16.525C101.657 26.1777 107.5 39.4061 107.5 54C107.5 68.5939 101.657 81.8223 92.1821 91.475ZM91.475 15.8179L54 53.2929L16.525 15.8179C26.1777 6.34277 39.4061 0.5 54 0.5C68.5939 0.5 81.8223 6.34277 91.475 15.8179ZM54 54.7071L91.475 92.1821C81.8223 101.657 68.5939 107.5 54 107.5C39.4061 107.5 26.1777 101.657 16.525 92.1821L54 54.7071ZM53.2929 54L15.8179 91.475C6.34277 81.8223 0.5 68.5939 0.5 54C0.5 39.4061 6.34277 26.1777 15.8179 16.525L53.2929 54Z" stroke="black" stroke-opacity="0.3"/>
</g>
</g>
</svg>
