<svg xmlns="http://www.w3.org/2000/svg" aria-hidden="true" style="position:absolute;width:0;height:0;overflow:hidden"><defs><symbol id="icon-open-menu" viewBox="0 0 32 32"><path d="M6.4 11.733V9.6h19.2v2.133H6.4zm0 5.334h19.2v-2.133H6.4v2.133zm0 5.333h19.2v-2.133H6.4V22.4z"/></symbol><symbol id="icon-close-menu" viewBox="0 0 32 32" fill=''><path d="m26.667 7.303-1.97-1.97-7.808 7.808-7.808-7.808-1.97 1.97 7.808 7.808-7.808 7.808 1.97 1.97 7.808-7.808 7.808 7.808 1.97-1.97-7.808-7.808 7.808-7.808z"/></symbol><symbol id="icon-icons" viewBox="0 0 32 32"><path d="m26.667 7.303-1.97-1.97-7.808 7.808-7.808-7.808-1.97 1.97 7.808 7.808-7.808 7.808 1.97 1.97 7.808-7.808 7.808 7.808 1.97-1.97-7.808-7.808 7.808-7.808z"/></symbol><symbol id="icon-masters" viewBox="0 0 32 32"><path d="M2.769 4.008c-.138 0-.252-.112-.252-.25s.109-.25.247-.25h.005a.25.25 0 0 1 0 .5zm1 0c-.138 0-.252-.112-.252-.25s.109-.25.247-.25h.005a.25.25 0 0 1 0 .5zm1 0c-.138 0-.252-.112-.252-.25s.109-.25.247-.25h.005a.25.25 0 0 1 0 .5zm21.993 6.498c-.138 0-.252-.112-.252-.25s.109-.25.247-.25h.005a.25.25 0 0 1 0 .5zm4.983 10.988H.255a.25.25 0 0 1 0-.5h31.49a.25.25 0 0 1 0 .5zM16 23.993c-.551 0-1-.449-1-1s.449-1 1-1 1 .449 1 1-.449 1-1 1zm0-1.5a.5.5 0 1 0 0 1 .5.5 0 0 0 0-1zm-4.246 7.999a.25.25 0 0 1-.244-.305v.002l1-4.499a.25.25 0 1 1 .488.11v-.002l-1 4.499a.25.25 0 0 1-.244.196zm8.492 0a.25.25 0 0 1-.244-.194v-.002l-1-4.499a.25.25 0 0 1 .188-.298h.002a.25.25 0 0 1 .298.19l1 4.499a.25.25 0 0 1-.244.304z"/><path d="M20.999 30.492h-9.997a.25.25 0 0 1 0-.5h9.997a.25.25 0 0 1 0 .5zm9.247-10.489H1.755a.25.25 0 0 1-.25-.25V3.258a.25.25 0 0 1 .25-.25h28.491a.25.25 0 0 1 .25.25v16.495a.25.25 0 0 1-.25.25zm-28.242-.5h27.991V3.508H2.004v15.995z"/><path d="M30.246 25.001H1.755a1.75 1.75 0 0 1-1.749-1.749V3.258a1.75 1.75 0 0 1 1.749-1.749h28.491c.965 0 1.75.785 1.75 1.749v19.994c0 .965-.785 1.75-1.75 1.75zM1.754 2.008c-.689 0-1.25.561-1.25 1.25v19.994c0 .689.56 1.25 1.25 1.25h28.491c.689 0 1.25-.56 1.25-1.25V3.258c0-.689-.56-1.25-1.25-1.25H1.754z"/><path d="M30.246 25.993H1.755a1.73 1.73 0 0 1-1.749-1.749v-1a.25.25 0 0 1 .5 0v1c0 .701.549 1.25 1.25 1.25h28.491c.701 0 1.25-.549 1.25-1.25v-.992a.25.25 0 0 1 .5 0v.992a1.73 1.73 0 0 1-1.75 1.749zm0-21.486H1.755a.25.25 0 0 1 0-.5h28.491a.25.25 0 0 1 0 .5zM3.254 19.003a.25.25 0 0 1-.25-.25V5.257a.25.25 0 0 1 .5 0v13.496a.25.25 0 0 1-.25.25z"/><path d="M25.747 20.003a.25.25 0 0 1-.25-.25V4.258a.25.25 0 0 1 .5 0v15.495a.25.25 0 0 1-.25.25z"/><path d="M30.246 8.506h-4.499a.25.25 0 0 1 0-.5h4.499a.25.25 0 0 1 0 .5zM3.254 7.007h-1.5a.25.25 0 0 1 0-.5h1.5a.25.25 0 0 1 0 .5zm0 1.499h-1.5a.25.25 0 0 1 0-.5h1.5a.25.25 0 0 1 0 .5zm0 1.5h-1.5a.25.25 0 0 1 0-.5h1.5a.25.25 0 0 1 0 .5zm0 1.499h-1.5a.25.25 0 0 1 0-.5h1.5a.25.25 0 0 1 0 .5zm0 1.5h-1.5a.25.25 0 0 1 0-.5h1.5a.25.25 0 0 1 0 .5zm0 1.499h-1.5a.25.25 0 0 1 0-.5h1.5a.25.25 0 0 1 0 .5zm0 1.5h-1.5a.25.25 0 0 1 0-.5h1.5a.25.25 0 0 1 0 .5zm0 1.499h-1.5a.25.25 0 0 1 0-.5h1.5a.25.25 0 0 1 0 .5zm0 1.5h-1.5a.25.25 0 0 1 0-.5h1.5a.25.25 0 0 1 0 .5zm0-13.496h-1.5a.25.25 0 0 1 0-.5h1.5a.25.25 0 0 1 0 .5zm25.992.5h-2.499a.25.25 0 0 1 0-.5h2.499a.25.25 0 0 1 0 .5zm0 1h-2.499a.25.25 0 0 1 0-.5h2.499a.25.25 0 0 1 0 .5zm0 3.499h-1.5a.25.25 0 0 1 0-.5h1.5a.25.25 0 0 1 0 .5zm-2.484 1.499c-.138 0-.252-.112-.252-.25s.109-.25.247-.25h.005a.25.25 0 0 1 0 .5zm2.484 0h-1.5a.25.25 0 0 1 0-.5h1.5a.25.25 0 0 1 0 .5zm-2.484 1.5c-.138 0-.252-.112-.252-.25s.109-.25.247-.25h.005a.25.25 0 0 1 0 .5zm2.484 0h-1.5a.25.25 0 0 1 0-.5h1.5a.25.25 0 0 1 0 .5zm-2.484 1.499c-.138 0-.252-.112-.252-.25s.109-.25.247-.25h.005a.25.25 0 0 1 0 .5zm2.484 0h-1.5a.25.25 0 0 1 0-.5h1.5a.25.25 0 0 1 0 .5zm-2.484 1.5c-.138 0-.252-.112-.252-.25s.109-.25.247-.25h.005a.25.25 0 0 1 0 .5zm2.484 0h-1.5a.25.25 0 0 1 0-.5h1.5a.25.25 0 0 1 0 .5zM26.762 18.003c-.138 0-.252-.112-.252-.25s.109-.25.247-.25h.005a.25.25 0 0 1 0 .5zM29.246 18.003h-1.5a.25.25 0 0 1 0-.5h1.5a.25.25 0 0 1 0 .5zM17.25 20.003H5.254a.25.25 0 0 1-.25-.25v-.51c0-.954.507-1.331 1.383-1.659.172-.064.405-.127.664-.198.777-.21 1.952-.528 1.952-1.133a.25.25 0 0 1 .5 0c0 .988-1.341 1.35-2.321 1.615-.242.066-.46.124-.62.184-.831.311-1.058.567-1.058 1.19v.26h11.497v-.26c0-.623-.228-.879-1.058-1.19a7.46 7.46 0 0 0-.62-.184c-.979-.265-2.32-.628-2.32-1.615a.25.25 0 0 1 .5 0c0 .604 1.174.923 1.951 1.132.26.071.493.134.664.198.876.328 1.383.705 1.383 1.659v.51a.25.25 0 0 1-.25.25z"/><path d="M9.252 16.504a.25.25 0 0 1-.25-.25v-1.181a.25.25 0 0 1 .5 0v1.181a.25.25 0 0 1-.25.25zm3.999 0a.25.25 0 0 1-.25-.25v-1.21a.25.25 0 0 1 .5 0v1.21a.25.25 0 0 1-.25.25zm-6.498 1.474a.25.25 0 0 1-.25-.25v-6.973a.25.25 0 0 1 .5 0v6.973a.25.25 0 0 1-.25.25zm8.996 0a.25.25 0 0 1-.25-.25l.002-6.973a.25.25 0 0 1 .5 0l-.002 6.973a.25.25 0 0 1-.25.25z"/><path d="M15.751 11.005a.25.25 0 0 1-.25-.25c0-.997-.307-4.249-4.25-4.249-3.485 0-4.249 3.067-4.249 4.249a.25.25 0 0 1-.5 0c0-1.321.853-4.749 4.749-4.749 3.502 0 4.75 2.453 4.75 4.749a.25.25 0 0 1-.25.25zm-4.5 5.499c-1.053 0-3.398-1.823-3.714-4.216a.25.25 0 0 1 .214-.28h.001a.252.252 0 0 1 .281.215c.283 2.145 2.429 3.782 3.218 3.782.89 0 3.249-1.958 3.249-4.311a.25.25 0 0 1 .5 0c0 2.535-2.546 4.811-3.749 4.811z"/><path d="M6.752 12.005a.25.25 0 0 1-.246-.206v-.002a.25.25 0 0 1 .203-.288h.002c.053-.009 5.319-.944 7.915-3.917a.251.251 0 0 1 .439.164.248.248 0 0 1-.062.165c-2.714 3.108-7.984 4.042-8.206 4.08a.286.286 0 0 1-.043.004z"/><path d="M15.75 11.505a.26.26 0 0 1-.04-.003h.001c-1.95-.309-3.11-1.809-3.158-1.873a.25.25 0 0 1 .397-.303v.001c.011.014 1.091 1.405 2.838 1.682a.251.251 0 0 1 .208.287v-.001a.25.25 0 0 1-.247.211zm-7.997 8.498a.25.25 0 0 1-.25-.25v-2.306a.25.25 0 0 1 .5 0v2.306a.25.25 0 0 1-.25.25zm6.997 0a.25.25 0 0 1-.25-.25v-2.306a.25.25 0 0 1 .5 0v2.306a.25.25 0 0 1-.25.25zM23.748 16.004H18.25a.25.25 0 0 1-.25-.25V7.757a.25.25 0 0 1 .25-.25h5.498a.25.25 0 0 1 .25.25v7.997a.25.25 0 0 1-.25.25zm-5.249-.5h4.998V8.006h-4.998v7.498z"/><path d="M20.249 10.506a.75.75 0 1 1 .002-1.502.75.75 0 0 1-.002 1.502zm0-1a.25.25 0 1 0 0 .5.25.25 0 0 0 0-.5z"/><path d="M22.748 10.006h-1.999a.25.25 0 0 1 0-.5h1.999a.25.25 0 0 1 0 .5zm-2.999 0h-.5a.25.25 0 0 1 0-.5h.5a.25.25 0 0 1 0 .5zM20.249 14.504a.75.75 0 1 1 .002-1.502.75.75 0 0 1-.002 1.502zm0-.999a.25.25 0 0 0 0 .5.25.25 0 0 0 0-.5z"/><path d="M22.748 14.005h-1.999a.25.25 0 0 1 0-.5h1.999a.25.25 0 0 1 0 .5zm-2.999 0h-.5a.25.25 0 0 1 0-.5h.5a.25.25 0 0 1 0 .5zM21.748 12.505a.75.75 0 1 1 .002-1.502.75.75 0 0 1-.002 1.502zm0-1a.25.25 0 1 0 0 .5.25.25 0 0 0 0-.5z"/><path d="M21.248 12.005h-1.999a.25.25 0 0 1 0-.5h1.999a.25.25 0 0 1 0 .5zm1.5 0h-.5a.25.25 0 0 1 0-.5h.5a.25.25 0 0 1 0 .5z"/></symbol><symbol id="icon-online-community" viewBox="0 0 32 32"><path d="M24.001 2.752H7.999C3.588 2.752 0 6.34 0 10.751v10.498c0 4.411 3.588 7.999 7.999 7.999H32V10.751c0-4.411-3.588-7.999-7.999-7.999zm7.019 25.517H7.999a7.028 7.028 0 0 1-7.02-7.02V10.751a7.028 7.028 0 0 1 7.02-7.02h16.002a7.028 7.028 0 0 1 7.02 7.02v17.518z"/><path d="M4.003 7.255v17.491h24.495V7.255H4.003zm23.515 16.511H4.982V8.235h22.536v15.531z"/><path d="M5.504 8.756v14.489h21.493V8.756H5.504zm.979.979h19.534v6.896l-2.505-2.536-3.012 2.991-1.839-1.769-1.284 1.306A4.014 4.014 0 0 0 14 14.76a3.997 3.997 0 0 0-3.864 4.996H6.484V9.736zm10.181 7.612-2.37 2.409h-3.136A3.015 3.015 0 0 1 14 15.74a3.03 3.03 0 0 1 2.665 1.607zm9.353 2.409h-8.515v.98h8.515v1.529H6.483v-1.529h8.221l3.975-4.04 1.831 1.761 2.995-2.973 2.512 2.543v1.73z"/><path d="M7.509 10.742v2.025h.98v-1.045h6.989v-.98zM16.523 10.742h1.502v.98h-1.502v-.98z"/></symbol><symbol id="icon-photost" viewBox="0 0 32 32"><path d="M16.523 10.742h1.502v.98h-1.502v-.98z"/></symbol><symbol id="icon-logo" viewBox="0 0 32 32"><path d="M9.563 31.309.667 22.413h21.128l8.896 8.896H9.563zm12.232-8.897V1.284l8.896 8.896v21.129l-8.896-8.896z"/></symbol><symbol id="icon-cross" viewBox="0 0 32 32"><path d="M31.708 25.708 22 16l9.708-9.708a1 1 0 0 0 0-1.414L27.122.292a1 1 0 0 0-1.414-.001L16 9.999 6.292.291a.998.998 0 0 0-1.414.001L.292 4.878a1 1 0 0 0 0 1.414L10 16 .292 25.708a.999.999 0 0 0 0 1.414l4.586 4.586a1 1 0 0 0 1.414 0L16 22l9.708 9.708a1 1 0 0 0 1.414 0l4.586-4.586a.999.999 0 0 0 0-1.414z"/></symbol></defs></svg>